<?xml version="1.0" encoding="utf-8"?>
<!-- Generator: Adobe Illustrator 22.0.1, SVG Export Plug-In . SVG Version: 6.00 Build 0)  -->
<svg version="1.1" id="Calque_1" xmlns="http://www.w3.org/2000/svg" xmlns:xlink="http://www.w3.org/1999/xlink" x="0px" y="0px"
	 viewBox="0 0 642 271" style="enable-background:new 0 0 642 271;" xml:space="preserve">
<style type="text/css">
	.st0{fill:#020203;}
	.st1{fill:#791714;}
	.st2{fill:#481010;}
	.st3{fill:#771714;}
	.st4{fill:#DADADA;}
	.st5{fill:#9D9D9C;}
	.st6{fill:#8A8A8A;}
	.st7{fill:#7E1816;}
	.st8{fill:#661511;}
	.st9{fill:#701611;}
	.st10{fill:#7A1715;}
	.st11{fill:#A6A5A5;}
	.st12{fill:#401211;}
	.st13{fill:#8A2D27;}
	.st14{fill:#732520;}
	.st15{fill:#B5B5B4;}
	.st16{fill:#FFFFFF;}
	.st17{fill:#721A13;}
	.st18{fill:#69150F;}
	.st19{fill:#6B150E;}
	.st20{fill:#6D160E;}
	.st21{fill:#919191;}
	.st22{fill:#6F1610;}
	.st23{fill:#611810;}
	.st24{fill:#75AF75;}
	.st25{fill:#F8DE87;}
	.st26{fill:#3D5E3A;}
	.st27{fill:#918045;}
	.st28{fill:#341010;}
	.st29{fill:#667143;}
	.st30{fill:#75B075;}
	.st31{fill:#667243;}
	.st32{fill:#F8D8B5;}
	.st33{fill:#591211;}
	.st34{fill:#F8D7B5;}
	.st35{fill:#907F44;}
	.st36{fill:#C0CE88;}
	.st37{fill:#3E5F3B;}
	.st38{fill:#721611;}
	.st39{fill:#5F2312;}
	.st40{fill:#BFCE87;}
	.st41{fill:#8F7961;}
	.st42{fill:#687343;}
	.st43{fill:#B24624;}
	.st44{fill:#535352;}
	.st45{fill:#82817F;}
	.st46{fill:#050705;}
	.st47{fill:#75B074;}
	.st48{fill:#230B0B;}
	.st49{fill:#734A33;}
	.st50{fill:#8E7D43;}
	.st51{fill:#242424;}
	.st52{fill:#3B261A;}
	.st53{fill:#474647;}
	.st54{fill:#4F4F4F;}
	.st55{fill:#C4AA8E;}
	.st56{fill:#951E1B;}
	.st57{fill:#8E7860;}
	.st58{fill:#907A62;}
	.st59{fill:#75AF73;}
	.st60{fill:#FEFEFE;}
	.st61{fill:#F6E089;}
	.st62{fill:#310F0E;}
	.st63{fill:#3C5C39;}
	.st64{fill:#7DB97B;}
	.st65{fill:#42653E;}
	.st66{fill:#4C4C4C;}
	.st67{fill:#F5D5B3;}
	.st68{fill:#B14624;}
	.st69{fill:#7EBB7C;}
	.st70{fill:#4D4C4C;}
	.st71{fill:#957E65;}
	.st72{fill:#C9AF91;}
	.st73{fill:#43663E;}
	.st74{fill:#88735C;}
	.st75{fill:#C9D68E;}
	.st76{fill:#7D7C7C;}
	.st77{fill:#585858;}
	.st78{fill:#CBD78F;}
	.st79{fill:#F6E58E;}
	.st80{fill:#6C7746;}
	.st81{fill:#464545;}
	.st82{fill:#818080;}
	.st83{fill:#6F7B48;}
	.st84{fill:#8E7861;}
	.st85{fill:#8D8D8D;}
	.st86{fill:#C5D18B;}
	.st87{fill:#998649;}
	.st88{fill:#4C1010;}
	.st89{fill:#F6E791;}
	.st90{fill:#43663F;}
	.st91{fill:#917B63;}
	.st92{fill:#642413;}
	.st93{fill:#F3E0BC;}
	.st94{fill:#652513;}
	.st95{fill:#C6D38C;}
	.st96{fill:#41633D;}
	.st97{fill:#F8E9C4;}
	.st98{fill:#5E2313;}
	.st99{fill:#978548;}
	.st100{fill:#988168;}
	.st101{fill:#958347;}
	.st102{fill:#80BC7E;}
	.st103{fill:#667142;}
	.st104{fill:#888888;}
	.st105{fill:#44683F;}
	.st106{fill:#B94726;}
	.st107{fill:#44673F;}
	.st108{fill:#CAD78F;}
	.st109{fill:#978067;}
	.st110{fill:#7EBB7D;}
	.st111{fill:#9B1F1B;}
	.st112{fill:#A6A7A7;}
	.st113{fill:#43653E;}
	.st114{fill:#887840;}
	.st115{fill:#998268;}
	.st116{fill:#9B884A;}
	.st117{fill:#CCD891;}
	.st118{fill:#595959;}
	.st119{fill:#636D40;}
	.st120{fill:#6E7947;}
	.st121{fill:#9A8849;}
	.st122{fill:#9D8A4A;}
	.st123{fill:#F5E58E;}
	.st124{fill:#998749;}
	.st125{fill:#968447;}
	.st126{fill:#585758;}
	.st127{fill:#9B894A;}
	.st128{fill:#456940;}
	.st129{fill:#7F5339;}
	.st130{fill:#BE4A28;}
	.st131{fill:#717D49;}
	.st132{fill:#B94827;}
	.st133{fill:#707C48;}
	.st134{fill:#9C894A;}
	.st135{fill:#80BD7E;}
	.st136{fill:#A08D4C;}
	.st137{fill:#F7E5C0;}
	.st138{fill:#7DBA7C;}
	.st139{fill:#5B5B5B;}
	.st140{fill:#EEDEBE;}
	.st141{fill:#7EB97C;}
	.st142{fill:#511110;}
	.st143{fill:#727E4A;}
	.st144{fill:#535253;}
	.st145{fill:#7FBA7D;}
	.st146{fill:#9C846A;}
	.st147{fill:#D7BB9B;}
	.st148{fill:#9E8B4B;}
	.st149{fill:#898989;}
	.st150{fill:#F3E5BF;}
	.st151{fill:#FFF6CF;}
	.st152{fill:#9A884A;}
	.st153{fill:#C44D28;}
	.st154{fill:#9F8C4B;}
	.st155{fill:#BF4B27;}
	.st156{fill:#737F4A;}
	.st157{fill:#9D8A4B;}
	.st158{fill:#555454;}
	.st159{fill:#C8D48D;}
	.st160{fill:#5A5959;}
	.st161{fill:#5A5A5A;}
	.st162{fill:#707B49;}
	.st163{fill:#815439;}
	.st164{fill:#FDE9C4;}
	.st165{fill:#767676;}
	.st166{fill:#82BE80;}
	.st167{fill:#988167;}
	.st168{fill:#5D5E5B;}
	.st169{fill:#9D866B;}
	.st170{fill:#CCB294;}
	.st171{fill:#9B8849;}
	.st172{fill:#815339;}
	.st173{fill:#BE4A27;}
	.st174{fill:#7EB87B;}
	.st175{fill:#A6924F;}
	.st176{fill:#871917;}
	.st177{fill:#707B48;}
	.st178{fill:#9F876D;}
	.st179{fill:#C74E29;}
	.st180{fill:#737F4B;}
	.st181{fill:#5D673C;}
	.st182{fill:#927C64;}
	.st183{fill:#504F4F;}
	.st184{fill:#5C5B5B;}
	.st185{fill:#5C5C5C;}
	.st186{fill:#F1E7C5;}
	.st187{fill:#85705A;}
	.st188{fill:#C94E29;}
	.st189{fill:#9C894B;}
	.st190{fill:#9F876C;}
	.st191{fill:#81BB7E;}
	.st192{fill:#81BC7F;}
	.st193{fill:#BB4927;}
	.st194{fill:#825439;}
	.st195{fill:#6A2613;}
	.st196{fill:#A08D4D;}
	.st197{fill:#9F8C4C;}
	.st198{fill:#85C282;}
	.st199{fill:#FEE6C1;}
	.st200{fill:#D2DF95;}
	.st201{fill:#727E49;}
	.st202{fill:#DFC4A3;}
	.st203{fill:#D6542B;}
	.st204{fill:#FAEF98;}
	.st205{fill:#83553A;}
	.st206{fill:#861917;}
	.st207{fill:#6D2713;}
	.st208{fill:#9A8749;}
	.st209{fill:#74804B;}
	.st210{fill:#A28A6E;}
	.st211{fill:#C04B27;}
	.st212{fill:#737E4A;}
	.st213{fill:#81BC7E;}
	.st214{fill:#FBED95;}
	.st215{fill:#BE4B27;}
	.st216{fill:#811815;}
	.st217{fill:#DFDEDD;}
	.st218{fill:#DCDCDB;}
	.st219{fill:#DDDDDC;}
	.st220{fill:#868685;}
	.st221{fill:#E8E8E8;}
	.st222{fill:#E1E1E0;}
	.st223{fill:#525152;}
	.st224{fill:#A1A0A0;}
	.st225{fill:#A3A3A3;}
	.st226{fill:#A2A2A2;}
	.st227{fill:#A4A2A0;}
	.st228{fill:#878786;}
	.st229{fill:#888887;}
	.st230{fill:#878686;}
	.st231{fill:#939393;}
	.st232{fill:#434343;}
	.st233{fill:#424242;}
	.st234{fill:#8C8B8B;}
	.st235{fill:#929292;}
	.st236{fill:#838281;}
	.st237{fill:#3C5B38;}
	.st238{fill:#77B376;}
	.st239{fill:#76B276;}
	.st240{fill:#3B5A38;}
	.st241{fill:#365333;}
	.st242{fill:#78B578;}
	.st243{fill:#7AB87A;}
	.st244{fill:#3D5C39;}
	.st245{fill:#7BB97A;}
	.st246{fill:#7CBA7B;}
	.st247{fill:#8A7A41;}
	.st248{fill:#84753E;}
	.st249{fill:#8A7940;}
	.st250{fill:#85753E;}
	.st251{fill:#85763E;}
	.st252{fill:#F7E28A;}
	.st253{fill:#F7E18A;}
	.st254{fill:#88783F;}
	.st255{fill:#F8E48C;}
	.st256{fill:#8D7D43;}
	.st257{fill:#F6E28A;}
	.st258{fill:#897940;}
	.st259{fill:#84753D;}
	.st260{fill:#FDE98F;}
	.st261{fill:#FCE88E;}
	.st262{fill:#82733C;}
	.st263{fill:#83733D;}
	.st264{fill:#F5E18A;}
	.st265{fill:#FCE98F;}
	.st266{fill:#FCEA90;}
	.st267{fill:#192519;}
	.st268{fill:#3B5A37;}
	.st269{fill:#9C8A4A;}
	.st270{fill:#C3D189;}
	.st271{fill:#616B3F;}
	.st272{fill:#616A3E;}
	.st273{fill:#C1D088;}
	.st274{fill:#79B678;}
	.st275{fill:#79B679;}
	.st276{fill:#7DBD7D;}
	.st277{fill:#646E40;}
	.st278{fill:#C5D48B;}
	.st279{fill:#17140D;}
	.st280{fill:#8C765F;}
	.st281{fill:#F9DDB9;}
	.st282{fill:#F6DCB8;}
	.st283{fill:#FAE0BC;}
	.st284{fill:#86715B;}
	.st285{fill:#846F59;}
	.st286{fill:#826C57;}
	.st287{fill:#231D16;}
	.st288{fill:#FBE1BD;}
	.st289{fill:#836D58;}
	.st290{fill:#89745E;}
	.st291{fill:#FEE5C0;}
	.st292{fill:#395736;}
	.st293{fill:#B34625;}
	.st294{fill:#636E40;}
	.st295{fill:#C6D48B;}
	.st296{fill:#C2D189;}
	.st297{fill:#C7D38C;}
	.st298{fill:#C9D98F;}
	.st299{fill:#75814C;}
	.st300{fill:#375333;}
	.st301{fill:#A2A1A1;}
	.st302{fill:#6C7745;}
	.st303{fill:#727D4A;}
	.st304{fill:#E3E2E1;}
	.st305{fill:#9C856B;}
	.st306{fill:#E8E7E6;}
	.st307{fill:#727272;}
	.st308{fill:#521E12;}
</style>
<g>
	<path class="st0" d="M48.3,172.2c0-0.5-0.3-1.3,0-1.6c4.6-5.8,8.2-12.2,15-16.4c11-6.8,23.1-9.7,35.3-12.9c1.1-0.3,2.3-0.3,2.7-1.4
		c1.9-6.2,7.2-8.2,12.6-10.1c20.7-7.3,42-12.7,63.4-17.8c3.8-0.9,7.7-1.9,11.8-0.3c2.1,0.8,4.2-0.5,6.3-1.8
		c6.6-3.9,6.8-10.5,8.1-16.8c3-14.7,6.9-29.4,14.9-42.2c8-12.9,19.5-21.6,35.9-21.7c8.7-0.1,17.5-0.5,26.2-1.7
		c7.4-1,12.3,2.5,17,7.1c5.4,5.4,10.5,11,15.7,16.5c3.5,3.7,8.2,3.3,11.1-0.9c3.9-5.6,9.1-9.7,14.7-13.5c0.4-0.3,1-0.8,1.4-0.7
		c5.4,1.3,6-2.9,7.9-6.3c4.2-7.3,11.4-10.6,19.4-11.7c6.9-1,12.5,6.6,10.5,13.5c-1.1,3.5-2,7.1-4.8,9.9c-0.9,0.8-1.4,1.8,0.5,2.7
		c9.3,4.7,18.3,9.9,26.7,16c1.8,1.3,2.6,0.9,4.1-0.3c12.1-9.7,24.8-18.2,40.4-21.5c5.2-1.1,12,1.9,16,6.3
		c6.7,7.3,8.6,16.4,10.5,25.6c0.7,3.2,1.1,6.3,0.7,9.6c-1.7,2.2-4,3.1-6.8,2.8c-2.3-0.2-4.5,0.9-6.8,0.5c-5.8-1.8-11.2,0-16.4,2.4
		c-6.3,2.8-12.4,5.9-17.9,10.1c-1.2,0.8-2.3,1.9-3.4,2.7c-0.5,0.5-1,1-1.6,1.5c-0.6,0.5-1.2,0.8-1.9,1.2c-0.9,0.4-1.8,0.8-2.8,0.9
		c-2.1,0-4.1-0.7-6.2-0.6c-3.3-0.7-6.6-1.2-10-0.1c-1.4,0.2-2.8,0-4.2,0.5c-2.2,0.5-4.2,1.5-6.2,2.6c-1.5,0.9-3.1,1.7-4.2,3.2
		c-4.2,9.3-4.8,9,4.6,13.7c0.4,0.2,0.7,0.5,0.9,0.8c1,1.4,2,2.9,2.8,4.4c0.9,1.8,1.6,3.7,1.9,5.7c0.1,1.6,0,3.2-0.7,4.7
		c-0.5,1.1-1.2,1.9-2,2.8c-0.4,0.6-0.8,1.2-1.3,1.8c-1.2,1.5-2.6,2.7-4,3.9c-6.3,5.8-12.5,11.7-18,18.2c-4.3,5.1-9.5,9.2-14.9,13.1
		c-0.8,0.6-1.6,1.1-2.5,1.3c-6.5,1.8-13.1,3.3-17.7,9c-0.4,0.5-1.2,0.5-1.9,0.2c-1.3-2-4.1-3.6-1.5-6.4c1-0.8,2.2-1.4,3.4-2.1
		c2.7-1.5,5.1-3.3,6.6-6.1c2.7-4.5-0.8-7.6-2.5-11.1c-2-2.4-4.1-4.7-6.8-6.5c-0.3-0.2-0.7-0.4-1-0.6c-7.9-5.5-16.3-7.5-25.5-3.7
		c-7,2.4-12.3,7.2-17.7,12c-1.7,1.5-0.1,2.9,0.1,4.3c0.2,1.5,0.2,3,0.7,4.4c0.4,1.5,0.3,3.1,0.6,4.7c-0.2,0.5,0.3,0.4,0.3,0.3
		c0-1,0.1-2,0.9-2.8c1.5-0.5,2.3,0.5,3,1.5c1.9,3.1,1.2,7,3.5,10c1.1,0.8,2.3,0.7,3.5,0.8c2.2,0.1,3.8-0.3,3.6-3.1
		c-0.1-1,0.1-1.9,1.4-2.1c1.7,0.2,2.4,1.8,3.5,2.8c0.4,0.4,0.7,0.9,1,1.4c0.2,0.3,0.4,0.6,0.5,1c1.1,1.6,2.3,3.2,4.6,3.4
		c0.7-1.5-0.5-2.4-0.6-3.6c-0.1-0.8-0.1-1.6,0.5-2.3c3.3-1.3,4.8,1.2,6,3.4c1.4,2.6,2.9,3.1,5.5,1.6c1.8-1,3.9-2.1,6.2-1.1
		c0.7,3.7-2.4,7.5-6.9,7.9c-4.2,0.4-8.4,0.1-12.5-1.1c-2.6-0.8-5.3-1.4-7.9-1.9c-2.8-0.6-4,0.1-3.8,3.3c0.2,2.8,1.2,5.6,0.6,8.5
		c-0.7,2.2-2.3,3.2-4.5,3.5c-4.5,0.5-7.1-3.3-10.9-5.1c-1.2,3.3-0.5,6.6-0.9,9.9c-1.6,4.2-3.6,8.1-8.8,8.9c-2.7-0.6-3.4-3.2-4.9-5
		c-0.6-0.8-1.2-1.5-1.7-2.2c-1.2-1.9-2.5-3.8-3.8-5.6c-6-5.5-12.6-9.7-20.8-11.4c-10.9-2.2-21.2-5.8-29.9-13.1
		c-2.5-1.8-4.5-4.2-6.8-6.3c-2.1-2.6-4.5-2.4-7.1-0.8c-3.7,2.2-7.6,3.9-11.7,5.3c-5.9,1.6-11.8,2.2-17.7,0c-1.7-0.7-3.3-1.6-4.8-2.6
		c-2.9-2.2-6.3-3.8-8.9-6.4c-0.7-0.7-1.8-1.2-1.7-2.6c2.1-2.5,5.8-2.6,7.9-5c1.3-0.8,2.9-1.4,3.9-2.6c1-0.9,2-2,3.2-2.7
		c0.7-0.5,1.4-1,2-1.6c0.7-0.7,1.5-1.5,2.2-2.2c0.4-0.4,0.7-0.8,1.1-1.1c1.1-1.1,2.2-2.1,2.8-3.6c0.3-0.6,0.6-1.2,0.9-1.8
		c-1.2-1.2-2.2,0.3-3.3,0.3c-1.3,0.4-2.4,1-3.6,1.6c-8,3.2-15.7,7.1-23.8,10c-3.3,0.8-6.3,2.6-9.3,4.1c-3.4,1.2-6.5,3.1-10.3,3.3
		c-1.6,0-3.2-0.2-4.2-1.7c-0.7-1.5-0.8-3,0.4-4.3c1.9-1,3.8,1,5.7,0.2c4.3-2,8.2-4.9,12.7-6.5c1.2-0.4,2.4-0.9,3.6-1.5
		c1-0.5,2-0.9,3.1-1.3c1.8-0.5,3.5-1.2,5.2-2c3.7-1.3,7.3-2.8,10.7-4.6c0.3-0.2,0.7-0.3,1-0.4c1.8-0.5,3.6-1.1,5.3-1.8
		c1.4-0.5,2.8-0.9,4.2-1.4c2.9-0.5,5-1.9,5.2-5.2c1.8-3.4,4.2-6.5,4.3-10.6c0.1-0.8,0.2-1.6,0.4-2.4c0.4-1.1,0.5-2.3,0.7-3.5
		c1.5-8.1,0.3-9.2-7.4-7.1c-1.8,0.5-3.6,1.1-5.4,1.7c-4,1.2-8,2-12,3.1c-1.4,0.3-2.6,1.2-4,1.6c-4.3,0.3-8.3,1.8-12.4,2.8
		c-8.5,1.9-16.8,4.3-25.1,6.9c-3.5,1.4-7.4,1.4-10.8,3.1c-1,0.5-2.2,0.9-2.3,2.1c-0.1,1.4,1.5,1.4,2.4,1.7c4,1.6,7.8,3.6,11.8,5.3
		c0.4,0.2,0.7,0.3,1,0.5c3,2.7,6,5.2,7.9,8.8c1,1.8,1.8,3.6,2.2,5.6c0.3,1.7,0.8,3.6-1.5,4.4c-1.7-0.3-3-2.7-5.1-0.8
		c-1.2,0.5-2,1.5-2.7,2.6c-1.7,1.7-3.3,3.4-4.6,5.4c-1.1,1.2-2.2,2.2-3.3,3.4c-0.6,0.6-1.1,1.3-1.6,2c-1.2,1.8-2.8,3.2-4.3,4.7
		c-1,0.9-1.8,2-3.1,2.4c-0.9,0.1-1.5-0.2-1.8-1.1c0.4-3.9,3.8-6,5.4-9.2c0.8-1.2,1.7-2.4,2.6-3.5c1.2-1.8,2.7-3.3,4-5
		c0.3-0.4,0.7-0.8,1.2-1.2c1.6-1.3,3.2-2.8,5-4c3.8-2.5,3.8-2.8,0.3-5.9c-0.4-0.3-0.8-0.7-1.2-1.1c-0.6-0.8-1.1-1.8-2-2.4
		c-1.6-1.1-3.2-2.2-5-3c-1.6-0.9-3.5-1.2-5.1-2.1c-2.3-1.9-4.9-2.2-7.7-1.1c-1.2,0.6-2.5,1.1-3.7,1.5c-2.1,0.6-4.1,1.4-6.2,2
		c-1.7,0.4-3.5,0.8-5.1,1.3c-5.4,1.6-11.1,2.5-16.1,5.5c-0.7,0.6-1.5,1.2-2.2,1.8c-0.9,0.8-1.9,1.4-2.8,2.2c1,0.4,1.8-0.4,2.6-0.4
		c1.2-0.3,2.3-0.7,3.4-1.3c2.3-1.2,3.1,0.5,4.1,2c1.2,1.9,0,2.6-1.5,3.3c-1.8,0.5-3.7,0.5-5.6,1.1c-3.4,0.6-7-0.4-10.4,0.6
		c-0.7,0.7-0.6,1.7-0.6,2.6c0,0.9,0,1.8,0,2.7c0.1,0.6,0.2,1.3,1,0.6c0.9-1.2,1.6-2.5,3.1-3.1c1.8-0.4,3.5-1.4,5.3-0.5
		c1.5,2.6-0.9,3.5-2.2,4.9c-2.1,2-4,4.4-6.2,6.4c-1.2,1.1-2.4,2.2-3.4,3.6c-0.5,0.8-1.2,1.5-1.5,2.9c3.4-0.6,6-2.3,8.6-4.1
		c1.9-1.5,3.5-3.3,5.2-5.1c1.3-1.2,2.4-2.7,4.2-3.4c6.3-1.2,12.6-2.4,18.9-3.6c1.2-0.2,2.4-0.6,3.6-0.6c1-0.1,2-0.2,2.9-0.5
		c0.4-0.1,0.8-0.2,1.2-0.2c0.9,0,1.7,0.2,2.3,0.9c1.9,5.3-0.8,8.9-4.6,11.9c-0.7,0.4-1.5,0.8-2.4,0.7c-1.6-2.4-1.6-2.4,0.9-6.6
		c-7.7,3.1-15.6,1.1-22.8,4.2c-1.4,0.6-2.5,1.4-3.5,2.5c-1.6,1.4-3,3.1-4.8,4.3c-1.1,0.6-2,1.5-2.8,2.4c-0.4,0.4-0.9,0.7-1.4,1
		c-1.8,0.9-3.7,1.6-5.7,1.8c-1.1,0-2.1-0.1-2.8-1.1c-0.2-0.6-0.1-1.3-0.8-1.6c-2.2-2.3-0.2-4.8-0.2-7.2
		C51.8,175.3,48.6,174.4,48.3,172.2z"/>
	<path class="st1" d="M392,137.2c0.9-1.5,0.8-3.3,0.8-4.9c0.5-2.2-0.1-4-1.8-5.5c-0.9-1.4-2-2.6-2.4-4.3c0.1-2.1,1.9-2.3,3.3-3
		c4.1-2,8.6-2.9,12.9-4.4c1.1-0.5,2.2-0.4,3.2,0c3,4.5,8.1,4,12.5,5c5.1,1.2,10.3,2.2,15.4,3.7c2,0.6,3.6,1.5,4.7,3.1
		c-2.6,4.7-7.8,5.8-11.9,8.2c-3.4,1.9-6.3,4.3-9.3,6.8c-3.7,3.1-2.1,6.1,0.6,8.5c4.8,4,10.7,4,16.4,4.8c1.8,0.2,3.8-0.8,5.4,0.8
		c1.3,0.8,2.6,0.5,4,0.2c3.6,0,7.1,0,10.7,0c1.3,0.3,2.7,0.7,4-0.2c1.5-1.5,3.3-0.6,5-0.7c1.6,0.5,3.2,0.5,4.9,0
		c4.1,0.8,8.3,1.4,12.4,2.5c1.2,0.3,3.4,0.6,3,2.6c-0.3,1.6-2.1,1.2-3.4,1.3c-6.1,0.5-12.1-0.9-18.2-0.8c-3,0-5.7,0.9-8.6,1.6
		c-1.2,0.3-1.5,0.7-1.5,1.8c0,1.3,0.8,1.3,1.7,1.6c5.9,2,11.9,1.7,18,1.5c12.3-0.4,24.1,1.7,35.9,4.8c2.3,0.6,3.7,2.2,3.6,3.7
		c-0.1,2.2-2.4,2.1-4.4,2.2c-7.5,0.2-14.2-2.9-21.3-4.5c-6-1.4-12-2.4-18,0.3c-1.4,0.6-2.5,0.9-2.4,2.6c0.1,1.8-0.7,3.7,1.8,4.7
		c2.7,1.1,5.3,2.4,7.8,3.8c0.8,0.5,2.8,0.4,2.1,2.1c-0.6,1.5-2.2,2.3-3.7,1.6c-2-0.9-3.9-2-5.7-3.6c-5.7-5.1-11.6-10-19.2-12.1
		c-6.4-1.7-12.9-3-19.5-3.8c-1.4-0.2-3.9-1-4.2,0.8c-0.3,1.6,0.1,3.9,1.6,5.5c0.4,0.4,0.8,0.7,1.3,1c1.6,1,3.9,2.1,2,4.1
		c-1.5,1.6-3.9,1.4-5.8-0.3c-4.5-3.8-7.1-8.9-9.9-13.8c-2.6-4.8-7.1-6.2-12-7.2c-8.4-1.7-13.6,3.1-18.2,9c-5.3,6.9-8,14.7-8.3,23.5
		c-0.1,3.4-2.2,6-5.3,7.8c-7.1,4.3-15.4,5.3-22.7,8.8c-9,4.3-16.5,10.4-18.5,21.3c-0.8,4.4-4.5,6.8-8.5,8c-8.5,2.5-17,3.3-25.6,0.1
		c-6.6-2.5-13.6-2.8-20.6-2.6c-1.3-0.7-2.3-1.6-1.6-3.3c2.3,0.7,1.4-2.1,2.8-2.5c1.7,0.5,1.8,3.8,3.8,3.1c2-0.8,0.3-3.1,0.6-4.8
		c0.4-2.1,1.3-3,3.3-1.8c2.3,1.4,4.6,2.9,7.1,3.9c3.2,1.3,4.6,0.6,4.9-2.9c0.2-2.4,0.1-4.9-0.2-7.3c-0.4-3.6,0.6-4.7,4.2-4.9
		c1.4-0.1,2.8-0.2,4,0.3c5.1,2,10.5,0.8,15.7,1.8c2.4,0.4,4.5-0.9,6.2-2.5c2.4-2.2,4.9-4.4,6.8-7c2.7-3.8,6.3-6.4,10.6-7.9
		c5.4-1.8,9.4-5.2,12.6-9.8c4.7-5,9.3-10.2,14.2-15c5.7-5.7,9.8-12.6,14.6-18.9c1.2-1.5,1.1-3.2,0.6-5c-0.4-1.4-1.3-2.7-1.2-4.3
		c1.2-2,3.6-3,4.3-5.3c0.3-0.4,0.6-0.9,0.9-1.3C391.3,139.1,392.4,138.7,392,137.2z"/>
	<path class="st2" d="M274.3,232c0.6,1,1.1,2,1.7,3c-3,0.4-6.1-0.3-9,0.8c-1.2-0.6-2.6-1-3.6-1.9c-6.4-5.7-14.2-8.2-22.5-9.4
		c-13.1-2-25.1-6.7-35.1-15.8c-2.3-2.1-4.8-3-7.7-1.1c-5.3,3.4-11.1,5.7-17.3,6.7c-2.4,0.4-4.3,2.3-6.9,2.3c-1-0.7-1.5-1.6-0.8-2.8
		c0.6-2.7,2.2-4.9,3.4-7.3c1.4-1.1,3-1.1,4.7-1c3.8,0.2,7.2-1.1,10.5-2.7c3.5-1.7,3.5-2.2,1.2-5.3c-0.5-0.6-1-1.3-1.4-2
		c-0.6-1-1.3-2-2.2-2.9c-3.4-3.5-6-3.2-8.6,0.9c-0.4,0.2-0.7,0.2-1.1,0c-3.4-4.7-8.6-6.5-13.7-8.2c-1.6-0.5-3.3-0.7-5-1
		c0.2-3.1,2.8-4.2,5-5.6c1.4,0.8,2.7,1.6,4.1,2.5c6.2,3,12.5,2.5,18.7,0c3.8-1.9,7.8-3.6,11.4-5.7c3.2-1.9,5.5-1.5,7.4,1.7
		c1.8,2.3,3.4,4.9,6.5,5.8c9.5,8.1,21,11.1,32.8,13.9c7.4,1.7,13.4,6,18.7,11.4c-1.9,1.6-4.1,1-6.2,0.7c-4.2-0.6-8.2-2-12.3-2.9
		c-2.1-0.4-4.2-1.7-6.2,1c-1,1.4-3.6,0.5-5.5,0.2c-7.1-1-14.1-3-21.2-4.2c-1.4-0.3-2.9-0.8-5-0.5c3.4,4,6.7,7.2,11.4,8.9
		c6,2.2,12.3,3.2,18.6,4.6c7.8,1.8,15.6,3.8,23,6.8c3.1,1.3,6.2,2.9,9,4.8C272.3,229,274,230,274.3,232z"/>
	<path class="st3" d="M174,216.4c2.8-2.5,6.3-3.3,9.7-3.8c4.8-0.7,9-2.8,13-5.4c3.3-2.1,6.2-2.8,9.4,0.3
		c12,11.8,27.5,14.8,43.1,17.8c7.2,1.4,12.6,5.8,17.9,10.6c-7,0.6-13.5,3.5-20.4,4.7c-2,0.3-3.9,0.7-5.8,1.2c-3.9,1.1-5.9-2-8.1-4
		c-3.8-3.4-8-6.2-12.5-8.3c-3.4-1.6-7.4-2.1-11.3-1.6c-5.3,0.8-10.6,1.5-16,1.5c-1.4,0.7-2.8,0.2-4.2,0.4c-3.3-0.1-6.5,0.2-9.8-0.3
		C173.1,228.6,170.3,221,174,216.4z"/>
	<path class="st4" d="M472.6,81c3.7-2,1.6-5.3,1.5-7.9c-0.2-3.3-1.1-6.6-1.7-10.3c7.6,3,11.6,8.5,12.4,15.7
		c0.7,6.2-2.5,11.5-7.7,15.3c-5.4,4-11.8,5.1-18.3,6c-10.4,1.6-20,5.7-29.4,10.1c-5.1,2.4-10.6,3.1-15.8,5c-2,0.7-3.1-1.2-4.5-2.2
		c-0.2-0.4-0.2-0.8,0.1-1.1c4-2.3,8.8-2.4,13.1-4c5.1-2,10.5-3.4,15.1-6.6c0.6-1.1,1.5-1.6,2.7-1.8c1.5,0.3,2.8-0.3,4.2-0.6
		c0.9-0.2-0.5-0.8-0.1-1.2c1-1.4,2.5-1.6,4.1-1.6c3.6,0.9,6.4-1.6,9.6-2.4c2.4-1,5.4-0.8,6.7-3.8c0.6-0.8,1.4-1.2,2.5-1.1
		c2.2,0.6,3.6-0.1,3.9-2.4C471.6,84.4,471.7,82.6,472.6,81z"/>
	<path class="st5" d="M51.6,186.8c1,0.1,2.1,0.2,3.1,0.3c1.4,0.7,2.7,0.1,3.8-0.4c3.9-2.1,8-1.7,12.1-1.3c7.3,1.6,14.4,3.7,21.9,3.8
		c4.2,0.1,8-1.2,11.2-4c0.8-1.2,1.8-2,3.1-2.6c0.5-0.2,1.1-0.4,1.6-0.4c4.6-0.9,8.6-3.1,12.7-5.1c1-1,2.2-1.7,3.7-1.4
		c3.1,0.7,5.8-0.7,8.6-1.6c3.8-1.3,7.7-2.5,11.6-3.3c0.4,0.1,0.7,0.2,1,0.4c0.4,2.3-2.6,2.2-2.9,4c-0.3,1.1,0.6,2.4-0.3,3.5
		c-11.8,0.3-23.4,2.1-32.1,10.6c-5.2,5.1-10.6,7.5-17.5,8.1c-0.4,0-0.8,0-1.2,0c-1.3-0.4-2.6-0.5-4,0c-1.3,0.4-2.1-0.5-2.7-1.4
		c-3.2-4.2-7.9-4.6-12.7-5.1c-6.3-0.7-12.7-1-19-0.8C50.8,190.4,51.4,188.6,51.6,186.8z"/>
	<path class="st6" d="M472.6,81c0.2,2,0.2,4-1.6,5.4c-0.7,1.2-1.6,2-3,2.1c-3.3-0.7-5,2.6-7.7,3.3c-0.3,0.2-0.7,0.3-1,0.4
		c-2.5,0.4-4.9,1.6-7.4,2c-1,0.2,0.3,0.7,0,1c-0.8,1.4-2.1,1.3-3.4,1.2c-1.5,0.3-2.9,0.6-4.2,1.6c-1.1,1.1-2.3,1.9-4,1.7
		c-0.9,0.5-1.8,0.9-2.7,1.4c-0.6,1-1.7,1.2-2.8,1.4c-0.9,0.4-2.4-0.8-2.6,1.1c-0.9,1.1-2.2,1.3-3.5,1.5c-3.4-0.4-6.1,1.9-9.2,2.6
		c-3.8,0.6-7.4,1.9-11.4,1.3c-0.5,0.2-0.3,0.5-0.1,0.3c0.8-0.6,1.7-0.3,2.7-0.1c0.6,1-0.2,1.4-0.9,1.7c-1.6,0.1-2.1,1.2-2.1,2.6
		c0.1,0.6,0.3,1.1,0.4,1.7c-0.8,1.1-1.5,0.2-2.2-0.2c-2.3-1.4-4.3-3.1-6-5.1c-0.4-1.8-1.1-3.7,1.4-4.5c7-1.2,13.7-3.8,19.7-4.6
		c-0.6,0-2.3,0.6-3.8-0.3c0.6-0.3,1.1-0.6,1.7-0.9c5.1-1.4,10.3-2.7,15.1-5.3c1.6-0.8,3.3-1.3,5-2c1.6-0.6,3.2-1.4,5-1.3
		c0.8-0.5,2.3,1.5,2.6-0.7c0.8-1.6,2.5-1.9,4-2.4c0.3-0.1,0.7-0.1,1-0.1c1.2,0.1,2.3-0.1,2.8-1.4c0.4-1,0.9-1.8,1.7-2.4
		c0.3-0.2,0.5-0.4,0.8-0.6c0.4-0.2,0.9-0.5,1.4-0.7c4.5-1.4,9.4-0.1,13.7-2.7C472.1,80.3,472.4,80.7,472.6,81z"/>
	<path class="st7" d="M191.9,195.1c0.6,0.7,1.2,1.4,1.8,2.1c3,3.9,2.7,4.6-2,6.9c-4.9,2.4-10,2.8-15.3,2.5c0.8-1.6,0.7-3.6,2.2-4.9
		c1.2-1.2,0-2.9,0.9-4.2c0-1.3,0-2.6,0-3.9c0.3-0.1,0.6-0.1,0.8-0.2c0.3,0.2,0.3,0.4,0.3,0.7c0,0.1,0.2,0.2,0.3,0.2
		c-0.4-2.2,0.3-3.9,2.6-4.4c2.5-0.6,4.3,0.7,6,2.4C190.4,193.3,190.9,194.4,191.9,195.1z"/>
	<path class="st8" d="M143,178.8c-0.3-1.2-0.5-2.4-0.8-3.6c2-1.8,4.6-2.7,7-3.8c2-0.3,3.8-2.1,6-0.6c3.5,2.7,7.1,5.3,10.6,8
		c-0.9,2.6-3.8,3.3-5,5.6c-5.4-0.3-10.2-2.9-15.6-3.2C143.8,181.2,144,179.3,143,178.8z"/>
	<path class="st9" d="M570,196.9c-3.9,2-7.5,0.1-11-1c-6.1-1.8-12.2-3.9-18.8-6c2.8-1.2,4.7,0.9,6.9,0.2c5.2,1.4,10.5,0.6,15.8,0.8
		c1.4,0,2.7,0.1,3.8,0.9c0.8,0.8,1.7,1.6,2.5,2.5C570.1,195,570.9,195.7,570,196.9z"/>
	<path class="st10" d="M516.1,196.9c-3.4,1.3-6.6,1.2-9.3-1.6c-2.5-2.7-5-5.4-8.5-7.1c6.2,0.7,12.7,0.2,17.8,4.4
		C516.7,194.1,516.7,195.5,516.1,196.9z"/>
	<path class="st11" d="M48.3,172.2c1.2,1.7,4.8,1.7,3.5,5c-1.7,2.4-1.8,5.2-2.1,8c-2.8-0.1-4.8-4.1-3.6-7.9
		C46.6,175.6,47.5,173.9,48.3,172.2z"/>
	<path class="st12" d="M174,216.4c-2.6,7.7,0.9,12.8,9,13c1.9,0,3.8,0,5.7,0c0.3,0.1,0.4,0.3,0.3,0.4c-0.1,0.2-0.2,0.2-0.3,0.2
		c-2.4,0-4.9,0.1-7.3,0.1c-7.4,0-10.3-3-9.8-10.5c0.1-2,0.4-4.1,1.5-5.9C173.4,214.7,173.7,215.6,174,216.4z"/>
	<path class="st13" d="M548.1,210.3c3.5,1,5.3,2.6,7.1,4c0.7,0.5,2.4,1,0.9,2.7c-1.4,1.6-2.9,0.9-3.7,0
		C550.9,215.3,549.9,213.2,548.1,210.3z"/>
	<path class="st14" d="M566.7,191.9c-5.7-0.8-11.4,0.5-17.1-0.8c-0.9-0.2-1.9,0-2.5-1c5.1,0.1,10.2,0.3,15.3,0.4
		C564,190.6,565.7,190.1,566.7,191.9z"/>
	<path class="st15" d="M49.7,185.2c-0.9-3.1-0.5-5.8,2.1-8c-0.2,2.7-1.5,5.2-1,8C50.4,185.3,50.1,185.2,49.7,185.2z"/>
	<path class="st16" d="M407.7,113.5c-1-1.7-2.2-3.5,1.4-3.2c0.5,0.5,0.5,1,0.1,1.6c0,0.3-0.1,0.6-0.1,0.8
		C408.6,113,408.1,113.2,407.7,113.5z"/>
	<path class="st17" d="M445.9,156.1c-1.5,1.1-3.2,0.8-4.9,0.4c0-0.1,0-0.3,0.1-0.3c0.2-0.1,0.5-0.2,0.8-0.2
		C443.2,156,444.5,156.1,445.9,156.1z"/>
	<path class="st18" d="M470.4,155.3c-1.6,1.1-3.2,1.1-4.9,0C467.1,155.3,468.7,155.3,470.4,155.3z"/>
	<path class="st19" d="M460.5,156c-1.3,1.6-2.6,0.9-4,0.2C457.9,156.1,459.2,156,460.5,156z"/>
	<path class="st20" d="M516.1,196.9c0-1.4,0-2.9,0-4.3C517.4,194.1,517.4,195.5,516.1,196.9z"/>
	<path class="st14" d="M570,196.9c-0.3-0.8-0.6-1.7-0.9-2.5C570.8,194.8,571.2,195.6,570,196.9z"/>
	<path class="st21" d="M88.2,197.5c1.3-1,2.6-1,4,0C90.9,197.5,89.6,197.5,88.2,197.5z"/>
	<path class="st22" d="M179.6,197.5c-0.2,1.4,0.7,3-0.9,4.2C179.3,200.3,178.1,198.6,179.6,197.5z"/>
	<path class="st23" d="M188.7,230.2c0-0.2,0-0.5,0-0.7c1.4,0,2.8,0,4.2,0C191.6,231,190.1,230.1,188.7,230.2z"/>
	<path class="st24" d="M217.3,64.5c3.2-7.5,6.6-14.9,13-20.4c1.5,0.2,2.4-0.7,3.1-1.8c3.6-1.9,7.2-3.7,10.8-5.6
		c3-1.4,6.2-1.7,9.5-1.7c9.6,0.1,19.3,0.3,28.9-0.8c2.4,0.6,5,0,7.3,1.1c2.7,1.1,4,3.9,6.4,5.4c1.6,1.5,3.3,2.9,4.3,4.9
		c0.8,2.6,2.8,4.1,4.7,5.7c2.3,3.2,6.1,4.8,8.7,7.6c1.1,1.2,2.3,2.3,2.8,3.9c-0.2,1.5,0.8,2.3,1.8,3.2c1.2,0.9,0.8,2.2,0.8,3.4
		c-0.4,0.4-1,0.5-1.6,0.5c-1-0.3-1.7-0.8-2.2-1.7c-1.4-2.2-2.8-4.3-5.7-4.8c-2.1-0.7-3.5-2.3-4.4-4.2c-0.5-1.7-1-3.4-3-4
		c-1.7-0.6-2.9-1.9-3.9-3.4c-0.1-0.3-0.3-0.6-0.4-0.9c-2.4-1.4-6.4-0.9-6.2-5.3c0-0.1-0.2-0.1-0.3-0.2c0,0.3-0.1,0.5-0.4,0.6
		c-1.3-0.1-2.3-0.9-3.2-1.7c-0.1-0.4,0-0.7,0.2-1.1c0.3-0.4-0.1,0-0.2-0.1c-2.5,1.6-5.7,1.7-7.9,4c-2.1,1.6-3.5,4.1-6.3,4.8
		c-1.6,0.2-3.2,0.6-3.8,2.4c0,0.5-0.1,1.1-0.2,1.6c0,2.2-1.2,3.1-3.3,3.1c-1.5,0-3-0.1-3.8,1.5c-0.2,0.3-0.4,0.6-0.7,0.9
		c-3.7,6.6-5.6,13.8-7.6,21c-0.9,3.4-2.8,6.5-2.6,10.2c0,0.4-0.1,0.8-0.3,1.2c-2.3,6.5-3.5,13.2-4,20c-0.1,1.9-0.2,3.8-1.1,5.5
		c-2.2,2.4-4.9,1.7-7.6,1.2c-2.4-0.4-4.6-1.6-7.1-1.4c-1.3-0.1-2.5-0.6-3.6-1.4c-1.3-1.3-2.7-2-4.6-1.9c-1.1-0.2-2-0.6-2.7-1.4
		c-0.4-1.1-1.2-1.2-2.2-1c-2.5-0.9-4.7-2.2-6.7-3.9c-1-1.8-3.4-2.1-4.3-3.9c0.3-2.4,1.3-4.7,1.8-7.1c0.4-8.6,2.5-16.8,4.6-25.1
		C215.4,70.5,216.9,67.7,217.3,64.5z"/>
	<path class="st25" d="M178.8,163.3c3.2-3.7,6.9-7,8.9-11.6c3.4-5.4,3.8-11.6,4.3-17.7c0.1-0.9,0.8-0.7,1.4-0.8
		c1.7-1.8,0.9-4.1,0.9-6.1c0-3.8,1.1-7.4,2.3-10.9c0.6-1.8,1.7-2.3,3.3-1.1c1.8,1.3,2.9,3.6,5.3,4.2c1.3,0.3,2.4,1,3.3,1.9
		c0.8,0.9,2,1.5,2.5,2.7c0.4,1.1,1.2,1.5,2.3,1.6c0.7,0.1,1.4,0.5,2,0.9c2.1,1.5,4.4,3,6.9,3.8c0.5,0.2,0.9,0.6,1,1.1
		c1.5,2.2,3.6,2.4,6,2.2c1.4,0,2.8,0.4,4.2,0.6c4.9,1.9,10.3,0.6,15.2,2.4c1.1,0.5,2.1,1.2,3.1,1.9c3,2.5,5.5,5.5,8.4,8.1
		c1.1,0.9,2.3,1.7,3.6,2.4c1.7,1,3.5,1.8,5.3,2.6c1.3,0.9,3.1,1.1,4.1,2.4c2.7,1.5,5.6,2.2,8.7,1.8c1.6-0.4,3.2-0.8,4.8,0.1
		c0.4,0.3,0.4,0.7,0.1,1c-3.3,1.8-2.4,6-4.8,8.3c-0.8-0.2-1,0.2-0.7,0.9c0,0.2-0.1,0.5-0.2,0.7c-0.4,0.6-0.9,1.2-1.5,1.6
		c-3.1,1.7-3.3,5.9-6.4,7.6c-2.5,2-5.9-0.6-8.4,1.5c7.2,9.5,12.8,19.6,13.4,33c-1.9-2.5-3.2-4.3-4.5-6.1c-0.8-2.1-1.9-4-2.7-6.1
		c-0.2-1.1-0.1-2.4-1.8-2.5c-1.9-0.2-2.1-2.2-3.2-3.3c-1.5-2-3.8-3.3-4.8-5.7c-0.3-1.1-1.1-1.6-2.2-1.7c-1.1-0.2-1.9-0.8-2.9-1.3
		c-1.1-0.6-2.2-1.1-3.4-1.6c-0.3-0.1-0.7-0.3-1-0.5c-3.1-2.1-6.6-3.1-10.2-3.6c-0.4-0.1-0.7-0.2-1-0.4c-4.9-1.9-10-3.4-14.7-5.8
		c-0.4-0.1-0.7-0.3-1-0.5c-1.1-0.7-2-1.7-2.8-2.7c-0.5-0.7-1.2-1.2-2.1-0.8c-0.7,0.1-1.3-0.2-1.9-0.6c-1.1-0.8-2.6-1.2-3.3-2.6
		c-1.6-2.1-3.8-3-6.4-3.2c-1.4-0.1-2.4-0.7-3.5-1.6c-1.3-1.1-2.8-2-4.6-0.9c-0.7,0.5-1.4,1.1-2.2,1.5c-0.3,0.1-0.7,0.2-1,0.2
		c-1.4,0.2-2.2,1-2.6,2.3c-0.4,1.1-1,1.9-2.1,2.4c-0.3,0.1-0.7,0.2-1,0.2c-1.5,0.2-2.5,1-2.8,2.6c-1.6,2.7-4,4.1-6.8,5.1
		c-5.5,2.7-10.9,1.9-17-0.5c4.2-3,8.7-4.4,12.2-7.4C177.8,165.2,178.4,164.4,178.8,163.3z"/>
	<path class="st26" d="M273.5,51.3c2.3-1.5,4.6-3,6.9-4.5c0.3-0.6,0.9-0.7,1.5-0.8c1.1,0,2.1-0.3,3.1-0.6c3-1,5.3-0.5,6.4,2.8
		c0.3,0.8,0.9,1.3,1.8,1.4c1.8,0.7,3.9-0.3,5.5,1.2c0.1,0.2,0.2,0.4,0.3,0.6c-1.8,0.9-3.5,0.3-4.6,0.4c3.2-1,5.7,1.5,8.4,3.5
		c1.1,0,1.7,0.7,2.1,1.6c1.1,4.6,4.7,6.9,8.6,8.8c1.1,0.3,1.9,1.1,2.4,2.2c0.5,0.6,1.1,1.1,1.6,1.7c1.6,0.3,2.1,1.4,2.3,2.8
		c0.3,2,0.3,4,0.1,6c-0.3,4.1-0.8,4.4-5.1,3.5c-2.4-7.8-9.3-7.9-15.6-9.1c-1.3-0.2-2.7-0.1-3.9-0.9c-2-2.2-3.4-4.9-6.5-5.8
		c-1.1-0.1-1.9-1.8-2.8-1c-1.1,0.9,0,2.1,0.3,3.3c0.6,1.9,2.2,2.9,3.3,4.3c0.1,1-0.2,2.1,0.1,3.1c-1.3,1.7-3.9,1.8-5.2,3.9
		c2.6,0.2,3.7-2.1,5.7-2.6c3.9-1.7,7.3,0.4,10.9,1.3l-0.1,0c0.2,0.2,0.4,0.4,0.6,0.4c5.7,0.8,6.5,2,4.7,7.5
		c-0.1,4.8-2.5,8.8-4.6,12.9c-0.4,0.7-1.2,1.2-0.8,2.1c-1.1,1.4-2.1,2.7-3.2,4.1c-4.1,3.5-8,7.2-11.4,11.5c-1,1.4-2.3,2.3-4.1,2.4
		c-10.7,8.4-22.7,7.4-34.9,4.6c-1.4-0.3-2.8-1.1-4.3-0.6c-0.9-0.4-1.8-0.9-2.8-1.3c0.9-1.3,2.3-1,3.5-1c1.1,0,2.1-0.1,2.4-1.4
		c0.8-1.4-0.7-3.6,1.8-4.3c0.6,1.8,0.3,3.7,0.3,5.6c-0.3-13.5,3.3-26.3,6.9-39.1c0.7-3.6,3.4-6.7,2.3-10.7c1.1-3.7,2.1-7.3,4.4-10.4
		l-0.1,0c1.1-2.2,3.2-2.3,5.3-2.1c2.6,0.2,2.5-1.1,1.9-2.8c0.1-0.6,0.1-1.1,0.2-1.7C270.5,52.6,271.8,51.6,273.5,51.3z"/>
	<path class="st27" d="M251.2,138.9c-0.8-0.5-1.6-1-2.4-1.5c-0.7-1.4-2.3-1.6-3.4-1.6c-4.3,0-8.4-1.1-12.7-1.1
		c-1.4-0.3-2.7-0.6-4.1-0.8c-0.6,0.4-0.9,0-1-0.5c-1.3-2-3.9-1.9-5.5-3.3c-2.7-0.6-4.6-3.1-7.4-3.5c-0.5-0.3-1.1-0.5-1.6-0.8
		c-1.4,0.2-1.8-0.8-2.4-1.7c-0.8-0.8-1.7-1.6-2.5-2.4c-0.6-2-2.3-2.4-4.1-2.8c-1.6-0.8-2.8-2.2-4.1-3.5c-0.8-1-2-1.5-2.4-2.8
		c0.3-0.8,1-1.2,1.7-1.5c1.8,0.2,2.3-1.5,3.2-2.4c0.3-0.1,0.5-0.1,0.8-0.2c2.1,2.6,4.1,5.3,7.2,6.8c3.1,1.8,6.2,3.5,9.3,5.3
		c1.7,2,4.4,2,6.4,3.4l-0.1,0c4,1.3,7.9,3.1,12.1,3.9c3.7,1.7,7.4,3,11.5,2.8c1-0.1,1.9-0.1,2.8,0.6c6,2.1,13.9,1.8,20.7,0.1
		c3.9-1.2,7.9-2.3,10.8-5.5c2.7-2,5.4-4,8-6c3.1-1.9,5.6-4.3,7.4-7.5c2.7-3.7,5.5-7.4,8.2-11.1c2.6-2.7,4-6,4.1-9.8
		c0.1-0.6,0.3-1.3,0.4-1.9c4.1,1.6,8.8,0,12.7,2.5c-4.4,2.6-4.4,2.8-0.7,6.7c0.1,0.8-0.4,1.1-1.9,1.3c2.3-0.1,3.5-2.1,5.1-0.4
		c0.2,0.8-0.8,1.6-0.1,2.5c1.9,1,3.8-0.5,5.7,0c0.5,0.3,1.1,0.5,1.6,0.8c1.4,1.4,4.6,1.1,4.1,4.3c-1.6,1.1-3.3,1.5-5.2,1.8
		c-0.4,0-0.7-0.1-1.1,0c-0.5,0.1-0.4,0.7-0.2,0.2c0.2-0.5,0.6,0.5,0.3,0.1c3.3-0.1,6.5-0.2,9.7-0.3c1.5,0.5,2.9,1.4,2.3,3.2
		c-0.5,1.6-2.1,1.4-3.5,1.3c-2-0.3-4.1-1.5-5.9,0.5c-0.2,1.5,0.6,2.8,0.6,4.2c0.1,1.7-1.6,2.5-1.9,4.1c-0.8,1.2-2.1,1.4-3.4,1.4
		c-2.4-0.2-4.6,0-6.4,1.8c-0.8,1.2-2.1,1.4-3.4,1.5c-4.2,0.2-7.9,1.9-11.3,4.2c-1.8,2.3-4.5,3.1-7.1,3.9c-1.5-0.1-2.6,0.6-3.7,1.6
		c-0.3,0.2-0.6,0.4-1,0.5c-6,2.7-6.1,2.9-3.9,9.1c0.6,1.6,0.4,2.8-0.7,3.9c-0.2,0.3-0.4,0.5-0.6,0.8c-2.7,0.9-3.9,3.7-6.2,5.1
		c-1.5-0.1-3.1-0.6-4.6,0.4c-2.8-1.3-6.3-0.5-8.9-2.6c-1.5-0.7-3-1.4-4.5-2.2c0.1-0.1,0.2-0.2,0.3-0.3c0.1-0.1,0.2-0.2,0.2-0.3
		c-2.2,0-3.7-2.2-6-2.1c-1.3-0.5-2.5-1.2-3.3-2.4C257.1,144,254.7,140.8,251.2,138.9z"/>
	<path class="st28" d="M385.5,146.1c3,5,1.9,8.9-1.6,13.8c-7.8,10.8-16.6,20.5-26.2,29.6c-2.2,1.7-4.3,3.9-7.5,1.5
		c-1.1-0.8-2.3,0.5-3.2,1.3c-2.7,2.5-5.4,5-7.6,7.9c-3.7,4.9-8.2,8.2-14.6,8.3c-2.8,0.1-5.3,1.1-7.2,3.3c-1.7,2.1-3.2,1.5-4.7-0.2
		c-1.7-2-2.8-4.3-4.1-6.5c-2.1-3.4-3.2-3.4-5.5-0.1c-1.8,2.5-2.2,2.4-4.4-0.8c-0.3-3.7-0.4-7.5-1-11.2c-0.3-2.1,0.2-2,2-2
		c4,0.1,7.7,1.3,11.4,2.3c4,1.2,8,1.2,12,1.1c3.2-0.1,6.2-3.3,6.4-6.6c0.2-0.7,0.3-1.3,1.2-0.7c5.4-5.7,12.6-7.5,19.6-10.2
		c6.7-2.6,12-8.3,16.7-13.8c5.6-6.6,11.8-12.6,18.2-18.4C386,145.1,385.9,145.6,385.5,146.1z"/>
	<path class="st29" d="M186.9,128.2c-0.2,4.1-1.9,7.6-4.6,10.7c0.2,4-3.4,4.3-5.8,5.8c-1.2,0.9-2.7,1.3-4.2,1.5
		c-2.2-0.4-3.8,1-5.7,1.7l0.1,0c-3.8,1.5-7.8,2.8-11.3,5c-1.5,1.2-3.4,1.6-5.1,2.2c-1.3-0.5-2.3-0.1-3,1.1c-1,0.8-2.1,1.4-3.4,1.5
		c-2.8,0-4.9,1.9-7.2,3c-2.4,1.1-3.5,0.6-3.9-2c-0.4-2.4-1.4-4.6-2.8-6.6c-1.3-3.2-5-4.4-6.1-7.7c1.4-3,5.1-2.5,7.1-4.6
		c1.1-1.1,2.3-1.9,3.8-2.5c0.9-0.4,1.7-0.8,2.6-1.2c2-0.8,4-1.7,6.3-1.3c4,0.6,7.4-1.8,11.2-2.2c-0.1-0.3-0.5-0.3-0.5-0.7
		c1.3-1.7,3.5-1,5.2-1.8c2.1,0.5,4-0.4,5.9-1c4.3-1.5,8.8-2.7,13.3-3.6c0.5-0.1,1.1,0.2,1.4-0.4c-0.6,0.4-0.9,0.1-1.2-0.4
		c1.3-2.3,3.4-2.1,5.5-2.1c0.9,0.2,1.6,0.6,2.2,1.3C187.2,125.3,186,126.8,186.9,128.2z"/>
	<path class="st30" d="M323.2,55.4c1.5-1.1,3.3-1.1,5.1-1.6c9.6-3.3,15.7,1.9,21.3,8.6c0.1,1.8,1.2,2.5,2.8,2.8
		c1.5,0.4,2.7,1.2,3.3,2.8c2.4,3.7,5.4,6.7,9.1,9.1c0.9,0.5,1.5,1.2,1.3,2.3c-0.6,1.8-2.3,2.1-3.8,2.6c-5.2,1.9-10.7,3.1-15.6,5.7
		c-1.3,0.7-2.8,1.2-3.2,2.9c-1.3,2.3-3.3,2.2-5.4,1.6c-0.3-0.2-0.7-0.5-1-0.7c-1.2-1.4-3-1.6-4.7-1.8c-3.7-0.5-5.3-2.2-5-6.2
		c0.4-4.1,0.4-8.4-0.8-12.5c-0.4-1.4-0.3-3-1.7-3.9c-1.4-2.5-2.7-5-4.1-7.5c-0.3-2.1,0.2-3.5,2.6-3.8
		C323.9,55.9,323.1,55.7,323.2,55.4z"/>
	<path class="st31" d="M382.1,125.8c2.2,0,2.5,1.8,3.1,3.3c-0.4,2.5,1.2,4.7,0.9,7.2c-5.9,6-11.9,12-17.8,18.1
		c-0.9,0.2-1.4,0.7-1.6,1.6c-0.6,0.6-1.1,1.1-1.7,1.7c-2.9,2-5.4,4.4-7.3,7.3c-2.6,2.5-4.9,5.4-8,7.3c-1.4,0.2-2,1.7-3.5,1.8
		c-0.6-0.2-1-0.6-1.1-1.2c1.5-2.2,0.7-4.3-0.2-6.5c-1.9-4.5-4.9-8.3-7.8-12.1c0.6-3.1,3.5-4.2,5.4-6.2c1.4-0.9,2.2-2.4,3.4-3.5
		c2.3-1.1,4.4-2.4,6.3-4.1c1.8-0.8,3.3-2.2,4.9-3.3c1-0.4,1.9-1,2.7-1.7c1.3-0.9,2.7-1.4,4.2-1.5c5.5-0.8,10.5-2.7,14.9-6.2
		c0.3-0.6,0.6-1.2,1.2-1.7C380.8,125.9,381.6,126.3,382.1,125.8z"/>
	<path class="st32" d="M285,162.5c5.1-5.3,10.6-10.2,18-12.3c0.5,0,1,0.2,1.4,0.5c1,0.6,2.2,1,3.3,1.3c1.5,0.9,3.6,0.8,4.5,2.8
		c-0.2,0.4-0.5,0.6-0.9,0.5c0.1,0.1,0.2,0.1,0.4,0.1c2-0.2,3.6,1.1,5.5,1.3c0.4,0.1,0.7,0.2,1,0.4c2,0.8,3.7,2.3,6,2.3
		c0.4,0,0.7,0.1,1.1,0.2c1.4,0.9,2.6,2,3.4,3.4c0.1,0.3,0.2,0.7,0.2,1.1c0.2,2,0.1,4-0.1,6c-2.3,4.7-4.7,9.2-9.1,12.3
		c-0.4,0.1-0.7,0.1-1.1,0c-2.1-0.4-4.2-0.8-6.2,0.4c-1.2,0.2-2.4,0.5-3.7,0.6c-1.2,0-2-0.8-2.8-1.6c-0.5-0.5-0.9-1.1-1.2-1.8
		c-0.6-1.5-1.8-2.5-3-3.5c-1.6-1.6-3.3-1.5-5.1-0.3c-1.1,0.6-2.2,0.9-3.4,0.5c-1.3-0.5-1.5-1.8-2.1-2.8c-0.7-3.4-3.8-5.1-5.5-7.8
		C285,165.2,283.7,164,285,162.5z"/>
	<path class="st33" d="M298.9,204.1c0.9,0.6,1.7,1.3,2.6,1.9c0.2-0.1,0.6-0.2,0.6-0.4c0.7-1.9,1.2-4.3,3.5-4.5
		c2.5-0.2,3.4,2.3,4.5,4.2c0.6,1.1,1.1,2.2,1.8,3.2c1.7,2.7,3.1,6.1,6.6,1.3c1.3-1.8,4-2.3,6.3-2.3c6.4,0.1,10.5-3.5,14.1-8.2
		c2.7-3.6,5.8-6.8,9.5-9.4c0.6-0.4,1.8-1.4,2-0.9c2.2,5.2,4.9-0.1,7.2,0.5c-2.5,5.4-6.9,8.5-12.3,10.4c-4.6,1.7-8.3,4.2-11.2,8.3
		c-1.9,2.7-4.5,5.1-7.1,7.2c-2.3,1.9-4.9,2.6-8.2,2.2c-5.9-0.6-11.8-1.3-17.6-2.1c-2.8-0.4-4.4,0.4-3.5,3.9c0.6,2.4,0.4,5.1,0.3,7.7
		c-0.2,4.4-2.2,5.6-6.1,3.6c-3-1.5-5.9-3.2-9.1-4.9c-0.4,1.7-0.3,3.2,0,4.8c0.3,1.2,1.4,3-0.5,3.4c-1.5,0.3-3.6-0.1-4.5-2
		c-0.4-0.8-0.1-1.9-0.9-2.6c-1.1-0.8-1.1-2-1.5-3.1c-0.4-1.9-1.6-3.6-1.1-5.7c4.6-0.9,6.6-4.5,8.3-8.3c0.7-1.1,0.8-3.4,2.3-2.9
		c4.2,1.4,6.5-2.4,10-2.8C296.8,206.8,298,205.7,298.9,204.1z"/>
	<path class="st34" d="M68.6,154.3c0.6-0.5,1.2-1,1.8-1.5c5.4-2.6,11.5-3.3,17-5.8c1.6-0.9,3.3-1.2,5-1.4c2.3,0.5,4.1-1,6.2-1.4
		c0.5-0.1,0.8-0.4,0.3-0.2c0,0-0.1-0.2-0.2-0.3c1.1-0.5,2.3-1,3.4-1.6c2.6-0.9,4.7,0.1,6.8,1.5c3.7,2.8,7.5,5.5,10.2,9.3
		c0.6,1,1.4,1.9,1.3,3.1c-0.8,2.9-3.3,4.4-5.1,6.5c-1.4,1.6-3.4,2.7-3.7,5c-0.2,0.9-0.7,1.6-1.7,2c-1.4,0.3-1.7,1.4-1.7,2.6
		c-0.8,2-1.8,3.7-3.6,4.9c-2.6,0.9-5,1.9-7.5,3.1c-0.4,0-0.8-0.2-1-0.5c-0.4-0.8-0.2-1.6,0.3-2.3c3.5-2.9,6.1-6.2,4.9-11.2
		c-0.7-1-1.5-1.2-2.4-0.2l-0.3,0.2l-0.4,0c-3.5-0.8-7-0.6-10.5-0.6c-1.6,0-3.3,0-4.7-1.1c-1.6-2.2-4.7-0.7-6.4-2.7
		c1.2-2.4,3.5-0.4,5-1.2c-2.2-0.4-4.5,0.9-6.7-0.5c2.7-1.2-0.2-2-0.3-3c-0.1-0.6-0.7-1.8-2-0.8c-1.1,0.9-2.4,1.7-4,1.6
		C66.7,156.6,68.1,155.4,68.6,154.3z"/>
	<path class="st35" d="M224.7,170.6c0.2,0,0.5,0.1,0.7,0.1c4.7,3.4,10.3,4.6,15.6,6.4l-0.1,0c3.9,1.1,7.7,2.5,11.5,4.1l-0.1,0
		c1.2,0.9,2.4,1.9,4,1.8c0.9,0.4,1.7,0.9,2.6,1.3c0.7-0.1,1,0.2,1.3,0.7c1.1,3.1,3.5,4.9,6,6.7c1.7,0.6,1.3,3.1,3.2,3.3
		c0.9,0.6,2,1.1,1.7,2.4c1.1,2.1,2.8,4,2.2,6.6c-2.7-2.9-6-4.9-9.1-7.3c-0.4-1.1-1.2-1.3-2.3-1c-1.7-0.7-3.5-1.4-5.2-2.2
		c-1.3-1.6-3.4-1.5-5-2.5c-4.8-1.6-9.3-3.6-14.2-4.7c-4-1.4-8.1-2.5-12.3-2.8c-1.3-0.1-2.4-0.6-3.4-1.5c-0.8-1.1-1.6-2-3.1-1.8
		c-1.1-0.8-2.2-1.7-3.3-2.5c-1.3-1.5-2.4-3.2-4.4-3.8c-0.8-1-2.4-1.1-3-2.5c-0.5-1.2-1.1-2.2-2.6-2.2c-1.5-1.5-3.5-2.1-4.9-3.7
		c-1.1-1.3-1.4,0.1-1.5,1c1.3,3-2.1,2.8-3,4.3c-4.8,2-9.7,3.5-15,2.3c1.9-2.3,4.9-3.2,6.6-5.7c0.8-1.3,1.5-2.6,3.2-2.7
		c0,0.1,0,0.3,0,0.4c1.8-0.3,2.9-1.2,3-3.1c0.6-1.2,1.3-2.2,2.7-2.3c0,0.1,0,0.3,0,0.4c1.4,0.2,1.9-0.8,2.4-1.8
		c1-1.7,2.2-1.9,3.9-0.7c1.7,1.1,3.1,2.7,5.2,3.1c2.5,0.5,4.6,1.8,6.5,3.4c1.1,0.8,2.2,1.6,3.3,2.4
		C219.9,168.5,222.7,168.9,224.7,170.6z"/>
	<path class="st36" d="M137.2,137.2c-0.8,0.3-1.6,0.6-2.4,0.9c-2.7,0.1-5.1,1.2-7.2,3c-1.6,1.8-3.9,2.4-6,3.4
		c-4.9-2.1-9.8-4.3-14.7-6.4c-2.1-0.9-0.8-2-0.2-2.7c1.4-1.5,3.4-2.3,5.3-2.8c2.6-0.7,5.3-1.3,8-1.9c6.4-0.7,12.2-3.4,18.4-4.8
		c2.3-0.5,4.8-0.8,7-2c4.4-0.5,8.6-2.2,12.9-2.9c0.9-0.9,1.7-2.1,3.3-1.7c4.3-0.1,8.4-1.3,12.2-3.3c3.8-1.4,7.5-3.1,11.7-2.8
		c2.4,0.2,3.8,0.9,3.2,3.8c-0.4,1.8-0.2,3.8-1,5.6c-0.9,0.9-2.1,1-3.3,0.9c-2.1,0.1-4,0.6-5.9,1.5c-2,1.9-4.7,1.9-7.1,2.4
		c-1.3-0.4-2.7-0.3-4,0.2c-5.4,1.9-11.2,2.7-16.5,5.1c-2.7,1.3-5.6,1.9-8.6,2.2C140.6,135,138.5,135.3,137.2,137.2z"/>
	<path class="st37" d="M365.7,79.3c-0.5-0.6-1-1.1-1.5-1.7c-2-1.5-4.1-3.1-5.2-5.5c0.4-0.8,1.1-1,1.9-1c3.6,3.4,6.7,7.1,8.9,11.5
		c0.1,3.3,2.8,6.1,2.2,8.9c0-0.2-0.3-1,0.4-1.7c2.7,7.5-0.7,16.9-8.2,18.9c-2.9,0.6-5.8,0.4-8.7-0.2c-1.6-0.3-3.2-0.6-4.3,1
		c-0.5,0.7-1,1.3-0.9,2.3c-0.5,0.8-1.3,0.9-2.2,0.8c-0.3-0.1-0.7-0.1-0.7-0.3c-0.5-4.7-4.7-4.9-7.7-6.6c-1-0.6-2.1-1.2-2.8-2.2
		c-0.8-3.3-0.4-3.7,4-4.2c0.4,0,0.8,0,1.2,0c-0.3-0.2-0.7-0.1-0.9-0.5c0.9-0.8,2.7-0.6,2.5-2.6c-0.2-1.8-1.6-2-2.8-2.5
		c-1-0.4-1.9-0.9-2.9-1.3c2.1-0.1,4-0.4,5.1-2.4c0.6-1.7,2.2-1.9,3.6-2.3c1.3,0.3,2.6-0.2,3.8-0.4c1.5-0.2-0.3-1.1,0.4-1.4
		c2.4-1.4,5.1-1.9,7.6-2.8c2.7-0.9,5.4-1.5,7.9-2.1C366,80.8,365.6,80.2,365.7,79.3z"/>
	<path class="st38" d="M271.1,228.7c-13.6-7.8-28.7-10.8-43.8-13.9c-7.5-1.5-14.1-4.8-18.9-11c-0.6-0.7-1.8-1.3-1.3-2.3
		c0.6-1.2,1.9-0.7,2.9-0.5c8.5,1.7,16.9,3.5,25.4,5.2c1.3,0.3,2.7,0.3,4,0.4c0.5,0,1.2,0,1.5-0.3c1.9-2.2,1.9-2.1,4.6-1.6
		c6.6,1.2,12.9,4.1,19.9,3.5c1.2,1.8,2.8,3.3,3.4,5.5c0.1,0.1,0.2,0.3,0.2,0.3c-4.3,3.3-1.3,6.2,0.4,9.3
		C270.2,225,272.3,226.3,271.1,228.7z"/>
	<path class="st39" d="M457.4,47.3c2.4,0.9,3.6,2.9,4.8,5c-0.1,1.6,0.7,2.9,1.7,4c1.6,2.8,2.2,5.9,2.4,9.1c-0.2,0.5-0.1-0.2-0.2,0.3
		c-0.2,0.5-0.1,1-0.2,1.5c0.1-0.4,0.1-0.8,0.4-1.1c1.2,1.2,0.7,2.7,0.8,4.1c-0.6,1.1-0.4,2.2-0.2,3.3c0.1,0.5,0.6-0.1,0.1,0
		c-0.2,0-0.3-0.3-0.3-0.6c0-0.4,0.1-0.8,0.4-1c0.9,1.8,2,3.7-0.9,4.9c-3.2-0.8-6.4-0.3-9.6-0.7c-4.1-0.6-4.5-1-3.9-5.1
		c0.2-1.5,1.4-3,0.6-4.7c-0.4-1.3,2-3.1-0.2-3.8c-1.9-0.7-2.5,1.5-3.4,2.8c-2,3-1.4,6.8-3,9.9c-1.2-0.7-1.2,0.3-1.6,0.9
		c-0.7,1.4-2.1,1.8-3.3,2.4c-5.6,2.2-5.6,2.2-7.2-3.7c-0.4-1.3-0.6-2.7-1.8-3.5c-1.5-2.2-3.4-4.1-4-6.7c-0.2-0.3-0.3-0.7-0.1-1.1
		c1.4-1.7,3.3-2.7,5.3-3.6c2.7-0.9,5.3-1.8,8-2.7c5.9-1.5,11.9-2.7,17.7-4.2C458.2,51.4,456.2,50,457.4,47.3z"/>
	<path class="st40" d="M343.1,148.7c-2,1.9-3.9,3.8-5.9,5.8c-0.6-0.6-1.1-1.1-1.7-1.7c-0.4-1.1-0.9-2-2.3-1.8
		c-1.2-0.7-2.3-1.5-3.5-2.2c-1.1-1.8-3.6-1.8-5-3.8c2.5-1.5,5.1-0.4,7.2-0.8c0.9-0.1,0.2-0.9,0.4-0.4c-3.5,0.7-7.2,0.2-10.7,1
		c-0.8-0.3-1.6-0.7-2.4-1c-0.3-0.5-0.2-0.9,0.2-1.2c2.4-1.3,5-0.6,7.6-0.7c3.1-0.1,6.2,0.2,9.2-1c2.1-0.5,4.1-1.6,6.1-2.4
		c2.7-0.3,4.1-1.9,4.4-4.5c2-2.9,1.7-6.8,4.1-9.6c2.5-0.9,4.8,0.2,7.1,0.5c2.3,0.4,4.6,1.8,7,0.2c-1.1-1-1.7-2.8-3.7-2.5
		c-0.7-0.3-1.2-0.9-1.7-1.3c-1.2-0.4-2.4-0.2-3.6-0.2c-6,0-6.3-0.4-6.1-6.4c0.1-2.4,1.1-2.8,3.1-2.1l-0.1-0.1
		c2.2,0.9,4.1,2.3,6.5,2.7c0.9,0.5,1.8,1,2.7,1.5c0.8,2.2,3,2.1,4.7,2.7c4.1,1.4,8.2,2.9,11.9,5.2c0.9,0.6,1.9,1.1,2.3,2.2
		c-0.4,0.4-0.8,0.9-1.3,1.3c-0.2,0.3-0.5,0.5-0.9,0.5c-1.3,0.1-2.3,0.6-2.8,1.9c-0.5,0.6-1.2,0.7-1.9,0.7c-2-0.2-4,0-5.4,1.6
		c-0.6,1-1.6,1.3-2.7,1.5c-2.2-0.3-4.3-0.2-5.5,2.2c-0.7,0.8-1.5,1.5-2.7,1.4c-2,0.5-3.6,1.7-4.8,3.4c-1.8,1.9-3.9,3.4-6.5,4.1
		C344.9,146.1,343.8,147.2,343.1,148.7z"/>
	<path class="st41" d="M311.7,182.8c2-3,4.5-1.4,6.9-0.7c-0.3,0.6-1,0.3-1.5,0.6c0.7-0.2,1.5,0.1,2.2-0.4c3.7-3.6,6.2-8,8.9-12.4
		c-0.2-1.3,1.2-2.1,1.1-3.3c0.1-1.2,0.2-2.3-1-3c-1.1-1.1-2.2-2.2-3.3-3.3c-1.4-1.5-3-2.4-5.1-2c-0.7-0.2-1.5,0-2.1-0.6l0.1,0
		c-0.5-0.5-1.5-0.2-1.9-0.9c-0.1-0.5,0.7-1.2,0.4-1.3c-3.2-0.5-5.7-3.1-9.1-2.7c-1.3-0.2-2.4-0.6-3.3-1.6c1.8-2.3,4.5-2.2,7-2.4
		c7.1-0.7,13.3,2,19.2,5.6c0.3,0.1,0.5,0.2,0.8,0.3c1.8,2.4,4.2,4.1,6,6.4c1.1,2,2.5,3.9,3.3,6c0.9,2.2,1,4.2-0.3,6.2
		c-1.1,3.3-4,4.7-6.7,6.4c-1.4,0-2.6,0.3-3.2,1.8c-2.7,2.4,1.5,3.7,1,5.7c-0.4,0.2-0.8,0.5-1.2,0.7c-2.2,0.1-4.2,1-6,2.2
		c-2.7,1.8-4.2,1.4-5.6-1.5c-1-2.1-2-4.9-5.4-4.5C312.2,183.7,311.9,183.4,311.7,182.8z"/>
	<path class="st42" d="M351.2,124.8c-1.3,3.3-1.8,7-4,10c0,1.6-1.2,2-2.3,2.6c-3.3,1.1-6,3.6-9.4,4.4c-5.4,0.9-10.8,0.1-16.1,0.5
		c-1.7,0.8-3.2-1.1-4.9-0.2c-1.2,0-2.4,0.2-3.4-0.7c0.2-0.5,0.8-0.3,1.1-0.6c-0.9,0.2-1.8-0.2-2.6,0.4c-3.5,0.6-7.3-1.3-10.7,0.9
		c-2.4,0.2-2.8-1.7-3.6-3.2c0.1-0.7,0.5-1,1.2-1.1c1,0.2,1.7,0.9,2.6,1.3c2.7,1,5.4,1.2,8.2,0.9c-2,0-4,0.7-5.8-0.8
		c-0.5-1,0.1-1.4,1-1.7c2.3-0.1,4.5-0.6,6.2-2.5c0.4-0.7,1.1-0.8,1.8-0.9c3-0.5,5.8-1.2,8.1-3.3c0.8-1.2,2.1-1.4,3.4-1.5
		c3.3,0.6,6-1.6,9.1-1.8c-0.2-0.5-0.5-1,0.1-1.4c5.4-2.4,11.2-2.7,17-3.1C349.3,123,350.8,123,351.2,124.8z"/>
	<path class="st43" d="M457.4,47.3c0,0.1,0,0.3,0,0.4c2.8,6.2,2.8,6.2-4.3,7.8c-3.8,0.9-7.6,1.6-11.3,2.4c-2.9,0-5.6,0.9-7.9,2.6
		c-1.7,1-3.4,2-5.1,3.1c-1.9-1-3-3-4.8-4.1l0,0c-0.8-2.6-4.4-2.4-5-5.1c0-0.2,0-0.4,0.2-0.6c1.9-0.9,4.1-1.6,5.6-3.3
		c1.4-1.3,3-2.1,4.9-2.4c3.5-0.9,6.5-2.7,9.9-4c1.3-0.4,2.6-0.7,3.8-1.3c3.5-1.9,6.7-1.3,9.6,1.2C454.5,44.8,456.1,45.8,457.4,47.3z
		"/>
	<path class="st26" d="M390.4,58c0.9,4,5.8,4.1,7.3,7.5c4.5,6.9,4.1,14.3,2.5,21.9c-0.2,1.3-0.6,2.4-1.5,3.4c-1.4,1-2,2.5-2.4,4.1
		c-0.6,0.5-1.2,1-1.8,1.5c-7.4,0.8-7.4,0.9-6.2-6.7c0.9-5.7-0.5-10.9-4.4-15.2c-1.3-1.9-2.7-3.9-4-5.8c0-1.5,0.8-2.5,2.2-2.9
		c3.4-0.9,5.1-3.7,7-6.3C389.3,58.8,389.6,58.2,390.4,58z"/>
	<path class="st44" d="M172.4,159.3c-0.6,0.5-1.2,1-1.7,1.5c-1.8,0-2.4,1.4-3.2,2.6c-1,1.4-1.8,2.9-3.9,2.5
		c-2.2,0.1-4.4,0.4-6.5,1.3c-1.1,0.4-2.2,0.7-3.3,1.2c-1.2,0.5-2.4,0.7-3.6,0.5c-1.5-0.5-3-0.4-4.4,0.3c-5.4,2.5-11.3,3.6-17,5.5
		c-4.6,1.5-9.4,2.2-13.7,4.5c-0.7,0.4-1.6,0.4-2.3-0.2c-1.4-1.7,1.4-2.6,0.9-4.1c0.5-0.6,1-1.1,1.5-1.7c1.5-0.7,2.6-1.9,3.2-3.5
		c1.2-2.2,2.8-4.1,5-5.5c1.8,0.4,0.6,2.4,1.7,3.1c1.1,1.1,2.6,0.9,4,1c-0.2,2-1.4,1.1-1.5,1.1c3.4-0.3,7.3-1.9,11.1-3.7
		c3-1.5,5.9-2.9,9-4.1c8.5-2.8,16.6-6.4,24.5-10.6c1-0.8,2.1-1.4,3.4-1.5c1.3,0.8,3.2-1.5,4.2,0.9c-0.3,0.5-0.6,1-0.9,1.5
		c-0.9,1.6-2.6,2.5-3.2,4.3c-0.2,0.2-0.4,0.4-0.7,0.7C173.8,157.3,172.8,158,172.4,159.3z"/>
	<path class="st45" d="M428.7,82.3c-3.4,4.1-7.9,6.9-12.2,10c-3.8,1.3-7.6,2.7-11.8,1.5c-0.5-2.5,1.6-4.2,1.8-6.5
		c1.3-3.7,1-7.6,1.2-11.3c0.2-0.4,0.6-0.9,0.7-0.8c4,2.3,5.8-0.6,8.1-3c1.2-1.3,2.8-2.4,4.5-3.2c2.2-0.9,3.6-0.3,5.1,1.7
		C429,74.1,429.4,78,428.7,82.3z"/>
	<path class="st46" d="M310.3,134.7c-0.6,0.3-1.2,0.5-1.7,0.8c-1.7,1.2-3.4,2.5-5.6,2.5c-0.7,0-1.2,0.2-1.6,0.8
		c-0.5,1.1-1.4,1.3-2.5,1c-0.8-0.7-1.5-1.3-1.4-2.5c0.1-0.4,0.3-0.7,0.7-1c0.3,0,0.5-0.1,0.7-0.2c0.9-0.9,1.8-1.7,3.2-1.6
		c2.5-1.3,5.1-2.6,7.6-3.9c3.4-2.2,7.1-3.7,11.2-4.3c1.2-0.4,2.4-0.9,3.6-1.3c1.7-1.8,3.9-2,6.2-2c1.2-0.4,2.4-0.9,3.6-1.3
		c1.3-0.8,1-2.2,1.3-3.4c-0.5-1.5-1-3.1-1.5-4.6c2-1.4,4.1-1.7,6.5-1.2c1.3,0,3,0.5,3.7-0.7c0.6-1.1-0.9-1.9-1.9-2.6
		c-1.5-0.3-2.9-0.8-3.3-2.5c-0.9-1.8-3.4-1.9-4.2-3.9c0.3-0.2,0.5-0.4,0.8-0.6c0.9-0.7,1.2,0,1.6,0.7c3.2,2.3,6.6,4.3,10.9,4.1
		c-0.2,1.7-2.1,3.3-0.2,4.9c1.5,1.1,2.6,2.3,1.6,4.3c-0.5,0.4-1.1,0.6-1.7,0.7c-2,0.2-4.1,0-6.1,0.1c-1,0.1-2.8-0.6-2.6,1.5
		c0.2,1.8,1.6,2.1,3,1.7c2.7-0.7,5.4-0.3,8,0.4c3.6,0.6,7.2-0.4,10.7,0.2c0.3,0.6,0.5,1.2,0.8,1.7c1.4,0.7,2.7,1.4,3.9,2.4
		c0.2,0.5,1.7,1.1,0,1.6c-2.3,0.7-4.6,0-6.8-0.4c-2.5-0.5-5-1-7.6-1.5c-7.1-1.5-13.8,0.5-20.5,2.5c-2.8,1.3-5.6,2.7-8.8,2.6
		c-1.2,0.5-2.3,0.9-3.5,1.4C315.9,133.1,313.2,134.1,310.3,134.7z"/>
	<path class="st47" d="M382.2,66.1c-0.8,0.8-1.6,1.7-2.5,2.5c-0.8-0.3-1.2-0.9-1.5-1.7c0.2-1.4-0.8-1.9-1.8-2.4
		c-2.7-3.7-5.5-7.4-8.2-11.1c-0.5-1.8-1.7-3-3.6-3.6c-2.1-1.4-4.2-2.7-6.3-4.1c-0.6-1.3-2.6-0.6-3.2-2.3c2.1-2.1,4.5,0.8,6.6-0.1
		c10.1,3.8,19.8,8.3,28.7,14.5c-0.3,0.5-0.6,1.1-0.8,1.6C387.5,62.3,385.2,64.6,382.2,66.1z"/>
	<path class="st48" d="M400,109.5c2.5,1.3,4.8,2.7,6,5.4c-0.4,1.7-1.9,1.6-3.2,2c-4.9,1.3-9.9,2.6-14.1,5.6
		c-12.2-5.5-10.5-5.1-5.6-15.5c3.3-2,6.6-0.1,9.8,0.3c1.6,0.2,3.2,0.6,4.7,1C398.5,108.4,399.4,108.7,400,109.5z"/>
	<path class="st49" d="M369.9,73.5c-0.6-0.3-0.8-0.8-0.9-1.4c-0.5-1.2-1.1-2.3-2.5-2.6c-2.7-2.7-5.4-5.5-8.2-8.2
		c-0.7-1.6-1.9-2.6-3.5-3.2c-0.6,0-1.1-0.3-1.4-0.9c-0.5-1.3-1.5-2-2.7-2.4c-1.9-0.6-3.2-2.1-4.7-3.3c-0.8-1.6-1.8-3,1.3-2.9
		c2,0.1,4,0.4,6-0.3c0.7-0.1,1.4,0,1.8,0.6c2,1.4,4.4,2.1,6.4,3.4l0,0c0.8,1.6,2.3,2.7,3.3,4.1l0,0c1.1,1.4,1.7,3.1,3.3,4.1l0,0
		c1,2.2,2.5,4,4.1,5.8l0,0c1.4,1.6,1.9,3.9,4.1,4.9c0.9,0.6,1.2,1.5,1.6,2.5c-1.2,1.5-2.8,2.4-4.7,2.8
		C371.9,75.7,371.5,73.9,369.9,73.5z"/>
	<path class="st50" d="M279.1,167.3c0.4-0.6,1.1-0.7,1.8-0.7c1.7,3.7,0.9,7.7,1.7,11.5c-0.5,1.1,0.3,2,0.4,3
		c1.1,1.7,2.5,2.9,4.4,3.5c2.2,1.2,2.6,3.4,3.4,5.5c1.7,1.4,1.8,3.1,1.2,5c-0.7,2.3-2.6,0.2-3.7,1c-1.7-0.7-3.6-1.1-5.1-2.3
		c-2.3-1.7-2.5-4.9-4.7-6.7c-1.1-1.5-2.2-3.1-3.3-4.6c-0.7-1.7-1.8-2.9-3.5-3.5c-0.4-0.3-0.9-0.6-1.3-0.9c0.5-0.9,1.3-1.1,2.2-1.4
		C275.2,173.9,276.5,170.1,279.1,167.3z"/>
	<path class="st51" d="M107.1,183.1c-0.9,0.7-1.8,1.5-2.7,2.2c-3.5,2.7-7.4,4.4-11.9,4.5c-0.8-0.3-1.7-0.4-2.3-1.1
		c-0.6-0.9-1-1.9-1.3-3c-0.2-0.5-0.2-1.1-0.3-1.6c-0.9-5-0.9-4.8-5.9-5.1c-4-0.2-8.2,0.4-11-3.6c1.2-1.4,3.1-2.1,4.7-2.1
		c7-0.1,13.9-1.3,20.9-2.9c-0.5,3-5,4.1-2.8,7.5c0.8,1.6-2.1,2.5-0.9,4.2c2.5,1,4.8-0.3,7.1-0.6c1.4-0.2,2.8-1,4.3-0.5
		c0.3,0.7,1,0.9,1.7,0.9c0.2,0.2,0.3,0.4,0.3,0.6C107.2,183,107.2,183.1,107.1,183.1z"/>
	<path class="st52" d="M373.1,75.9c1.7-0.7,2.9-2.3,4.9-2.4c5.4,6.6,8,13.9,5.5,22.4c-0.2,0.8-0.6,1.5-1.1,2.1
		c-1.2,1.5-2.8,3.4-4.6,2.9c-1.9-0.5-0.5-2.8-0.5-4.2c0.1-7.6-2.7-14.2-5.8-20.9C372.1,75.4,372.6,75.5,373.1,75.9z"/>
	<path class="st53" d="M450.9,88.3c-1.4,0.8-2.9,1.6-4.3,2.3c-0.6,0.7-1.3,1.4-2.3,0.8c-1.6,0.5-3.3,1-4.9,1.6
		c-1.8,0-3.5,0.3-4.7,1.9c-5,2.5-9.8,5.6-15.8,4.6c0-0.7,0.3-1.2,0.9-1.4c2.1,0.1,2.7-2.2,4.5-2.7c7.4-5.9,15.9-9.7,24.8-12.5
		c2.4-0.8,5.9-2.1,8.2,1.2c-0.1,0.1-0.3,0.2-0.5,0.2C454.6,85.2,452.9,87,450.9,88.3z"/>
	<path class="st16" d="M421.2,69.4c-2.3,2.5-6.2,3.5-7.2,7.3c-0.4,1.4-1.5,1-2.3,0.5c-1.2-0.6-2.3-1.3-3.4-2
		c-0.9,0.4-1.2-0.5-1.8-0.8c-2.9-2.9-2.1-5.7-1.3-9.6c0.9-4.5,3.7-4.6,6.4-5.1c3.7-0.7,7.3,0.1,10.4,2.6c1,0.8,0.9,1.9,1,2.9
		C424,67.4,422.8,68.4,421.2,69.4z"/>
	<path class="st54" d="M397.8,109.3c-5-0.6-9.7-2.5-14.8-2.3c0.9-1.7,2.6-2.3,4.1-3.2c2.4-0.3,4.5-1.2,6.4-2.6
		c1.2-1.1,2.7-0.7,4.2-0.8c3.5,0.1,7.1,0.3,10.6,0c2.3-0.4,4.4,0.7,6.6,0.9c-0.7,2-2.5,2-4.2,2.4c-3,0.7-6.2,0.4-9,1.7
		C399.8,106.1,398.6,107.5,397.8,109.3z"/>
	<path class="st55" d="M83.2,163.2c2.8,2.1,6,0.6,8.9,0.8c2.2,0.2,4.3,0.3,6,1.9c-0.7,0.8-1.7,0.7-2.6,0.6c-1.4-0.9-2.8,0.1-4.2,0.1
		c-7.5,1.9-15.2,2.2-22.6,4.3c-1.1,0.3-2,0.7-2.9,1.3c-3.1,0.1-1.4-1.8-1.2-3.1c0.8-1.6,3.2-1.9,3.2-4c-0.3-0.4-0.3-0.7,0-1.1
		c0.6-0.3,1.2-0.3,1.8-0.1c3.5,0.7,7.1,0.2,10.6-0.4C81.2,163.2,82.1,162.5,83.2,163.2z"/>
	<path class="st56" d="M271.1,228.7c-1-3.3-3.3-5.8-5-8.6c-1.6-2.6-2-4.3,1.5-5.2c0.4-0.1,0.8-0.7,1.1-1.1c0.5,0.6,1.1,1.2,1.6,1.8
		c0.1,2.1,1.7,3.3,2.8,4.7c1.3,1.8,1.9,3.8,2.5,5.8c0.1,0.5,0,1,0.1,1.5c0-0.5,0-1.1,0.4-1.5c1,0.9,0.7,2.2,0.8,3.3
		c0.2,1.9-0.2,3.3-2.6,2.6C273.2,230.9,272.2,229.8,271.1,228.7z"/>
	<path class="st57" d="M302.3,176.3c1.3,0.8,2.4,1.9,3.1,3.4c-0.6,0.5,0,2.2-1.6,1.6c-0.3,0-0.7,0-0.8,0.1c-1,1.7,1.7,4.4-0.7,5.2
		c-2.6,0.8-5.6,0.6-8.3-0.2c-0.9-2.6-0.7-5.3-1.6-7.9c-0.3-0.8-0.2-1.6,0.8-2c1.1-0.3,2.2-0.6,3.2-1c0.9,0.4,1.1,1.3,1.4,2.1
		c0.6,0.9,1.3,1.5,2.3,0.6C300.6,177.3,301.2,176.5,302.3,176.3z"/>
	<path class="st58" d="M64.5,169.1c0.3,0.8-0.9,2.1,0.8,2.5c2.2-0.8,4.3-2.2,6.7-0.6c-1.1,1-2.1,2.1-3.2,3.1
		c-2.3,0.9-3.6,2.9-5.2,4.7c-3,3-6.6,4.5-11,5.1c0.4-2.3,1.6-3.6,2.8-5.1c1.6-0.8,2.7-1.9,3.2-3.6C60.7,173.2,62.6,171.1,64.5,169.1
		z"/>
	<path class="st59" d="M335.7,41.7c0.9-1.1,1.9-1.9,3.3-2.4c2.7-0.3,5.4,0.1,8.1,0c1.6,0.1,3,0.5,4.4,1.4c0.4,1.5,2.5,0.7,3.1,2.3
		c-1.1,1.5-2.8,1-4.3,1.1c-3,0.2-6-0.1-8.6,1.8c-1.6,0.9-3.4,1.2-5.2,1.4c-0.5-0.3-1-0.3-1.5-0.2c-0.9,0.2-2,0.4-2.5-0.6
		c-0.5-1.1,0.6-1.6,1.2-2.3C334.3,43.4,335,42.6,335.7,41.7z"/>
	<path class="st60" d="M354.4,36.8c-1.2-0.8-3.6,1.2-3.9-1.2c-0.3-2,1.7-3,3.2-3.7c3.7-1.8,7.6-1.9,11.6-1.7c1,0.1,1.3,0.7,1.5,1.5
		c0.8,1.8,0.1,3.4-0.5,5c-0.4,0.6-0.8,1-1.5,1.3c-1.5,0.7-3,0.3-4.6,0.2c-0.8-0.2-1.6-0.3-2.1-1.1c-0.6-2,0.7-2.6,2.1-3
		c-2.5-0.8-2.2,2.8-4.2,2.8C355.5,37.2,354.9,37.2,354.4,36.8z"/>
	<path class="st41" d="M105.3,181.2c-4.2,1.5-8.2,3.8-12.8,1.6c1.1-1.3,1.5-3.5,3.9-3.2c0.3,0.1,0.5,0.1,0.8,0
		c2.6-0.8,5.2-1.7,7.4-3.4c1-1.6,2.1-3.1,3.1-4.7c-0.1-0.6,0.2-0.9,0.7-1c0.7,0.4,1.5-0.1,2.2,0.2c0.5,0.5,1,1,0.5,1.8
		C109.1,175.3,107.2,178.2,105.3,181.2z"/>
	<path class="st61" d="M324.2,99c-3.8,0-3.8-3.4-3.8-5.4c0.1-2.8,3.1-0.9,4.7-1.5c4.2,0.1,8.1,1,11.6,4.4c-1.7,0-3.4,0-5.1,0
		C329.5,98.4,326.9,98.9,324.2,99z"/>
	<path class="st62" d="M294.8,206.6c-1,1.1-2.8,0.9-3.4,2.6c-0.7,1.9-2.3,2.3-3.9,1.4c-2.5-1.4-3.7,0.1-4.9,1.8
		c0.2-3.1-0.1-6.1,0.4-9.2c0.4-2.7,1-2.3,2.9-1.2C288.7,203.7,290.8,207.1,294.8,206.6z"/>
	<path class="st63" d="M349.6,63.6c-2.8-2.6-5.4-5.4-8.3-7.8c-2.4-2-5.5-2.1-8.5-2c-1.5,0.1-3,0-4.5,0c7.1-4.2,13.1-1.3,18.7,3
		c1.3,1,2.3,2.3,3.4,3.5c1.4,2.7,4,4.3,5.9,6.5c0.8,1,2.4,1.6,1.5,3.3c-1.6,0.5-2-0.7-2.5-1.7c-0.8-1.1-1.7-2-3-2.5
		C351,65.7,350.1,64.9,349.6,63.6z"/>
	<path class="st64" d="M283.4,35.1c-13,1.8-26.2-0.2-39.2,1.6c2-2.6,5-2.4,7.7-2.4c7.9-0.1,15.7-0.2,23.6-0.2c2.9,0,5.9-2.1,8.8,0.1
		C284.2,34.7,283.7,34.8,283.4,35.1z"/>
	<path class="st65" d="M243.4,123.2c3.7-2,7,0.9,10.5,1.3c9.6,1.1,18.9,1.1,27.2-4.8c0.4-0.3,1-0.3,1.5-0.4
		c-4.3,5.1-10.3,6.7-16.5,7.1C258.4,127,250.8,125.8,243.4,123.2z"/>
	<path class="st66" d="M457.3,84c-3.1-1.3-6.4-1.1-9.4-0.1c-8.7,2.8-16.8,6.8-24,12.4c-0.3-0.3-0.8-0.3-0.8-0.8
		c7.6-6.4,16.5-10.3,25.7-13.5c3-1,6.4-1,9.5,0.5C457.9,83.1,457.6,83.6,457.3,84z"/>
	<path class="st41" d="M115.9,145.4c1.9,0.7,3.6,1.7,5,3.2c0.3,1.1,1,1.9,1.9,2.5c0.2,0.2,0.4,0.3,0.5,0.5c0.1,0.3,0.2,0.5,0.4,0.7
		c3.6,3.6,3.6,3.9-0.9,6.5c-2.3-0.9-1.9-3.8-3.8-5c-1.4-3.4-5.4-4.7-6.6-8.2C113.6,144,114.8,146.1,115.9,145.4z"/>
	<path class="st67" d="M69.5,164.2c-0.6,0-1.1,0-1.7-0.1c-1.7,1-4.1-0.1-5.5,1.8c-0.9,1-1.8,2.1-2.6,3.1c-0.9,0.1-1.7-0.1-2.4-0.8
		c0-1.1-0.1-2.2-0.1-3.3c0.3-1.9,1-3.2,3.4-2.9c1.4,0.2,2.9,0.3,4.3-0.2c0.5-0.2-0.1-0.9,0.1-0.4c0.1,0.2,0,0.3-0.2,0.4
		c-2.5,0.3-5,0.6-7.5-0.2c4-0.9,8.1-0.5,12.1-0.8c1.6,0.3,2.1,1.3,1.9,2.8C70.9,164.5,70.3,164.8,69.5,164.2z"/>
	<path class="st68" d="M355.2,25.5c0.2-0.2,0.4-0.3,0.6-0.3c3.3-1,6.5-2.2,9.6-3.6c1.5-0.2,3.1-0.4,4.5,0.3l-0.1-0.1
		c0.6,0.8,1.9,0.5,2.2,1.7c0.2,2.1-1.1,3.2-2.5,4.3c-0.3,0.2-0.7,0.2-1.1,0.2c-0.9-0.1-1.6-0.9-2.6-0.5c-0.6-0.2-1.2-0.4-1.8-0.6
		c-1.8-0.8-3.6-1-5.4,0.1c-0.6,0.2-1.2,0.4-1.9,0.5C356.1,27.1,354.2,27.5,355.2,25.5z"/>
	<path class="st69" d="M324.9,67.2c1.9-0.7,1.5,1.1,1.7,1.8c1.6,4.5,2.1,9.3,1.6,14c-0.4,3.9,0.8,5.8,4.8,6.2
		c1.5,0.2,3.2,0.5,4.4,1.8c0.1,0.1,0,0.3-0.1,0.4c-0.1,0.1-0.2,0.2-0.3,0.3c-0.9-0.2-1.8-0.4-2.7-0.7c-7.7-2.1-7.8-2.1-7.6-10.2
		C326.8,76.1,326,71.6,324.9,67.2z"/>
	<path class="st70" d="M71.8,175.5c3.6,2.1,7.6,3,11.7,2.4c4.6-0.7,5.9,1.6,6.3,5.4c0.1,0.9,0.1,1.9,0.1,2.8
		c-1.4,1.7-2.2,0.2-2.3-0.7c-0.3-4.3-3.1-4.8-6.5-4.7c-4,0.1-7.5-2.5-11.6-2.2c-0.4-0.1-0.7-0.3-1-0.5
		C69.4,176.8,70.3,175.7,71.8,175.5z"/>
	<path class="st5" d="M156.5,166.4c2.3-0.9,4.4-2.7,7-0.6c-1.8,3.2-5.5,3.2-8.3,5c-1.9,0.5-3.9,0.9-5.8,1.4
		c-1.1-0.4-2.4,0.4-3.2-0.7c0-2.1,1.8-2,3.1-2.4c1.4-0.4,2.9-0.3,4.2-1.1c1.1-0.4,2.2-0.8,3.4-1c0.1,0,0.4,0,0.3-0.1
		C156.9,166.8,156.7,166.7,156.5,166.4z"/>
	<path class="st71" d="M330,154.2c-2.1,0.6-3.3-1.2-4.8-1.9c-7-3.4-14.1-3.9-21.4-1.2c-0.3-0.3-0.6-0.5-0.8-0.8
		c7.5-4.4,15-2.7,22.2,0.7C326.8,151.7,329,152.2,330,154.2z"/>
	<path class="st69" d="M341.6,45.9c-0.5-0.3-2.2-0.4-0.2-1c3.9-1.2,7.9-1.9,13-1.4c-1.6-1-2.5-1.6-3.3-2.2c0,0,0-0.3,0.1-0.4
		c0.1-0.1,0.2-0.2,0.3-0.3c3.4,0.9,6.9,1.8,10.3,2.7c-1.9,1.8-3.7-0.7-5.9,0.1c1.1,0.6,1.9,1.1,2.8,1.6c0.1,0,0,0.3,0,0.4
		c-0.1,0.1-0.2,0.2-0.3,0.3C352.8,44.2,347.2,44.9,341.6,45.9z"/>
	<path class="st72" d="M72.1,170.9c-2.3-0.6-4.4,1-6.7,0.6c1.8-2.7,4.8-1.9,7.2-2.5c6.2-1.5,12.8-1.5,19-3.3
		c0.4,0.4,1.2,0.7,0.7,1.5C85.5,168.5,78.8,169.7,72.1,170.9z"/>
	<path class="st73" d="M383.8,74.4c0.7-0.8,1.2-0.2,1.5,0.4c3.2,5.4,4.8,11.1,3.1,17.4c-1.2,4.6-1,4.7,3.5,3.8
		c1-0.2,1.8-0.6,2.5,0.4c-1.3,0.5-2.5,1.1-3.8,1.4c-3.4,0.7-5.3-0.9-4.1-4.1C389.2,86.6,387.1,80.5,383.8,74.4z"/>
	<path class="st74" d="M119.2,153.5c2,1,3,2.7,3.3,4.9c-0.9,2-3,2.9-4,4.7c-0.3,0.3-0.7,0.7-1,1c-1.6,1.2-3.1,2.6-4.2,4.3
		c-0.7,1.1-1.5,2.1-3,2.2c-0.5,0-1,0.8-1.6,0.1c-0.6-1,0.2-1.3,0.8-1.7c0.5-0.6,0.9-1.2,1.4-1.7c1.3-3.2,4.4-4.9,6.5-7.5
		c1-1.2,2.7-2,2.6-3.9c-0.4-0.8-0.9-1.7-1.3-2.5C118.8,153.5,119,153.5,119.2,153.5z"/>
	<path class="st75" d="M360.9,120.9c-3.7,1-7.5,1.1-11.4,0.7c-0.8-0.4-1.3-1-1.6-1.9c-0.3-1.6,0-2.9,1.5-3.8c-0.5-1.4-1-2.7-1.6-4.1
		c0.8,0,1.6-0.1,2.5-0.1c0.9,0.2,2.1-0.6,2.5,0.9c-4.9,0.6-0.7,4-1.7,6c-1,2,1.3,1.4,2.3,1.4c1.9,0.1,3.8,0,5.6-0.3
		C360.3,119.4,360.8,119.7,360.9,120.9z"/>
	<path class="st76" d="M365,37.4c0.2-0.2,0.5-0.5,0.7-0.7c0.8-0.9,0.8-2.7,2.7-2.6c0.9,0.8,0.7,1.9,1,2.9c0.9,3,0.1,4.3-3.3,3.5
		c-4-1-8.1-1.7-11.8-3.7c0.6-0.1,1.1-0.1,1.7-0.2c0.8-0.3,1.7-0.6,2.4,0.3c0.3,0.8,1.1,0.6,1.8,0.8C361.8,38,363.4,38.4,365,37.4z"
		/>
	<path class="st77" d="M172.1,151c0.9,1-0.2,1.1-0.6,1.3c-7.2,3.2-14.5,6.5-21.8,9.6c-0.5,0.2-1.3-0.1-1.9-0.2
		c-0.2-0.2-0.3-0.3-0.2-0.5c0.1-0.2,0.2-0.2,0.2-0.2C155.9,157.6,164,154.3,172.1,151z"/>
	<path class="st78" d="M145.4,124.1c-7.7,3.3-16,4.7-24,7.2c-0.3,0.1-0.9-0.4-1.3-0.7c8.2-3.1,16.8-5.1,25.3-7.3
		c0.3,0.2,0.4,0.3,0.3,0.5C145.6,124.1,145.5,124.1,145.4,124.1z"/>
	<path class="st79" d="M197.6,112.6c1.2,0.4,1.8,1.4,2.5,2.4c0.2,0.2,0.3,0.4,0.2,0.6c-0.1,0.2-0.2,0.3-0.2,0.3
		c-1.3-0.9-2.4-1.8-3.1,0.6c-1.3,4.1-2,8.3-1.8,12.7c0.1,1.4,0.9,3.5-1.7,3.8C193.1,125.9,193.6,118.9,197.6,112.6z"/>
	<path class="st80" d="M295.6,138.8c0.8,1.4,1.9,2.5,3.2,3.3c2.1,2.1,5.1,1.3,7.5,2.1c0.3,1-0.3,1.1-0.8,1.1c-2.5-0.2-4.8,3.2-7,1.1
		c-1.8-1.7-2.5-4.4-3.7-6.7C294.5,138.9,294.8,138.7,295.6,138.8z"/>
	<path class="st64" d="M214.8,72.7c-1.7,8.7-3.8,17.3-4.9,26.1c-0.5,0-0.5-0.6-0.8-0.8c0-0.3,0.1-0.6,0.1-0.8c0.7-1.4-0.1-3,0.6-4.3
		c0.5-7.3,1.9-14.5,4.8-21.3C215.1,71.8,215.2,72.2,214.8,72.7z"/>
	<path class="st81" d="M61.3,184.6c0.5-1.1,1.3-1.9,2.5-2.4c1,0.3,2-0.3,3-0.2c3.1,0.6,6.3,0.7,9.4,1.5c1.6,0.6,3.5,0.6,4.9,1.8
		c0.3,0.7,0.3,1.3-0.2,1.9c-3,1.3-5.6-1.2-8.5-0.7c-0.8-0.3-1.6-0.9-2.5-1C67.1,184.9,64,186.2,61.3,184.6z"/>
	<path class="st82" d="M421.2,69.4c0.6-1.4,1.2-2.7,1.9-4.1c2.8,3.1,5.5,6.4,6.6,10.6c0.6,2.3,0.8,4.5-1.1,6.4
		c-1.7-2.6,0.3-5.6-1.1-8.2C426.1,71.5,425.3,68.2,421.2,69.4z"/>
	<path class="st83" d="M129.9,151.9c2,1.3,3,3.4,3.1,5.4c0.3,4.1,2,3.4,4.7,2.2c1.9-0.8,3.4-3.3,6-1.9c-4.3,2.3-8.7,4.6-13,6.9
		c-0.5-0.8-0.5-1.5,0-2.3c2.4-0.1,1.5-2,1.2-3c-0.5-2.2-1.4-4.3-2.2-6.4c-0.2-0.2-0.3-0.4-0.2-0.6
		C129.7,152,129.8,151.9,129.9,151.9z"/>
	<path class="st84" d="M285.8,166.5c2.6,1.9,5.3,3.6,5.8,7.2c0.3,1,0.6,2-1.1,1.9c-0.8-0.5-1-1.8-2.2-1.7c-1.7,0.3-1.9-0.8-2.1-2.1
		c-0.1-0.5-0.1-1,0.1-1.5c-0.4,0.4,0,1.1-0.7,1.4c-1-1.6-0.6-3.4-0.7-5.2C285.3,166.2,285.5,166.2,285.8,166.5z"/>
	<path class="st85" d="M401,105.4c2.8-2.2,6.4-1.4,9.6-2.3c1.5-0.4,3.1-0.6,4.4-1.7c0.7-0.5,1.3-1.2,2.3-0.9c1.9,0,3.7,0,6.7,0
		c-8.4,2-15.4,4.9-22.9,5.8c-0.3-0.2-0.3-0.4-0.3-0.5C400.8,105.4,400.9,105.4,401,105.4z"/>
	<path class="st86" d="M380.8,126.7c-5-3.3-10.3-5.7-16-7.5c-2.2-0.7-2.2-0.8-2.8-2.6c6.7,3,14,4.9,20.2,9.1
		C382,126.5,381.4,126.6,380.8,126.7z"/>
	<path class="st87" d="M273.6,131.5c-7.1,2.9-14.4,1.9-21.6,0.8c-0.6-0.1-0.4-0.5-0.1-0.7c0.2-0.1,0.5-0.2,0.8-0.2
		c7,0.8,14,1.2,21-0.6c0.3,0.2,0.4,0.3,0.3,0.5C273.8,131.4,273.7,131.5,273.6,131.5z"/>
	<path class="st73" d="M400.1,87.4c-0.2-0.5-0.8-1-0.7-1.3c2.8-7.2,0.7-13.9-1.8-20.5C403.3,72.3,402.9,79.7,400.1,87.4z"/>
	<path class="st88" d="M188.6,181.2c-1.2,1.3-1.2,1.4-3.6,1.9c-4.6,1-9.3,1.1-13.8-0.5c-0.5-0.2-1.9,0-1.3-1.4
		C176.1,183,182.4,182.6,188.6,181.2z"/>
	<path class="st89" d="M192,133.9c2.5,2.2-0.1,4.3-0.2,6.4c-0.3,4.1-0.8,8.3-3.5,11.7c0,0-0.3,0-0.4-0.1c-0.1-0.1-0.2-0.2-0.3-0.3
		C189.1,145.7,190.6,139.8,192,133.9z"/>
	<path class="st90" d="M315,81.9c1.1-1.4,3.9,1,4-1.3c0.2-3.7,1.9-7.8-1.4-11.1c0.6,0,1.1,0,1.7-0.1c2.4,3.5,1.9,7.4,1.2,11.1
		C320,83.9,317.9,84.2,315,81.9z"/>
	<path class="st91" d="M311.7,182.8c0.4,0.4,0.7,0.7,1.1,1.1c0,0.7,0,1.5,0,2.2c0.4,1.1,1.1,2.4-0.1,3.3c-1.1,0.8-2.2-0.2-3.1-1
		c-0.8-0.7-1.5-1.5-2.4-2.1c-0.1-0.3-0.1-0.6-0.2-0.8c0.5-0.8,0.4-2,1.6-2.3C309.7,183,310.6,181.8,311.7,182.8z"/>
	<path class="st92" d="M453.3,66.2c1.8,1.6,0,3.3,0,4.9c-0.1,2.4-0.1,3.9,3.2,4.2c3.3,0.3,6.7,0,9.8,1.4c-2.7,0-5.4,0-8.2,0
		c-1.3-0.9-2.9,0.1-4.1-0.7c-2.5,0.3-2.6-1.4-2.3-3.1C452,70.6,452.7,68.4,453.3,66.2z"/>
	<path class="st93" d="M87.3,146.9c0.3,0.2,0.6,0.3,1,0.5c-5.9,2-11.8,3.9-17.9,5.3C75.4,149.1,81.4,148.3,87.3,146.9z"/>
	<path class="st94" d="M432.8,71.1c2,1.6,2.1,1.8,2.5,4.2c0.8,4.7,0.8,4.6,5.1,2.6c0.6-0.3,1-0.1,1.4,0.4c-0.5,0.4-1,0.9-1.6,1.2
		c-1.6,0.9-3.6,2.8-4.8,2.4c-2-0.7-0.4-3.3-0.9-5C433.9,75,433.3,73,432.8,71.1z"/>
	<path class="st95" d="M321.6,144.8c3.7-2.3,7.7-0.4,11.5-0.4c-2.4,0-4.7,0-7.2,0c0.3,2.6,4.4,1.3,3.9,4.3
		C327.1,147.4,324.3,146.1,321.6,144.8z"/>
	<path class="st96" d="M290,75.2c-2.7-0.8,0.4-1.7,0-2.6c2.1,2.4,5,3.3,8,4c1.3,0.3,2.7,0.2,3.4,1.7c-1.5,0.2-3-0.1-4.3-0.7
		c-2.1-0.9-4.2-0.5-6.3-0.1C290.1,76.9,290.6,75.9,290,75.2z"/>
	<path class="st97" d="M71,163.3c-0.5-0.8-1.1-1.6-1.6-2.5c1.8-0.7,3.6-0.9,5.5-0.9c2.5,0,5,0,8.3,0c-2.6,1.6-4.9,0-6.5,1.7
		C75.2,163.4,73.4,164.4,71,163.3z"/>
	<path class="st98" d="M368.4,27.9c0.2-0.1,0.5-0.1,0.7-0.2c1.5,0,2,1.8,3.5,1.9c1.1-1.8-0.6-3.7,0.2-5.5c0.1-0.2,0.2-0.3,0.4-0.4
		c3.5,3.3,1.2,7.1,1.4,11.4c-2.8-2.5-4.9-4.4-7.1-6.4C367.6,28.2,367.8,27.9,368.4,27.9z"/>
	<path class="st99" d="M237.6,186.2c5.3,0.4,10,2.8,14.7,4.9c-0.2,0.3-0.5,0.6-0.8,0.7c-4.6-1.6-9.3-3.2-13.9-4.9
		c-0.2-0.2-0.3-0.3-0.2-0.5C237.5,186.3,237.6,186.2,237.6,186.2z"/>
	<path class="st100" d="M118.4,163.2c0.4-2.4,2.4-3.4,4-4.7c4.8-1.7,2.5-4.3,0.9-6.9c4.9,2.7,5,4.7,0.6,7.6
		C122.1,160.3,120.3,161.8,118.4,163.2z"/>
	<path class="st101" d="M295.6,138.8c-0.3,0.3-0.6,0.6-0.8,0.9c-2.7,1.4-1.2,3.1-0.6,5.1c0.5,1.8,3.8,4.4-0.8,5.5
		c0-1.4,0.7-2.6,0-4.2c-2.3-5.2-0.7-8.1,4.9-9.7c-0.1,0.3-0.2,0.5-0.3,0.8c-0.3,0.6-0.5,1.2-1.4,0.8
		C296.2,138.3,295.9,138.5,295.6,138.8z"/>
	<path class="st96" d="M357.7,70c-0.9-3-3.9-4.3-5.6-6.6c-0.6-0.9-2.7-1.2-1.7-3c3.7,3.4,7.3,6.8,10.5,10.7
		c-0.3,0.6-0.8,0.8-1.4,0.8C358.4,71.8,357.8,71.2,357.7,70z"/>
	<path class="st102" d="M335.7,41.7c0,1.9-2,2.7-2.8,4.2c1,1.2,2.7,0,3.5,1.3c-2.6,0.7-5.1,1.4-8.8,2.4
		C330.5,46.1,332.8,43.6,335.7,41.7z"/>
	<path class="st103" d="M130.8,162.2c0,0.7,0,1.5,0,2.2c-2.1,1.5-3.3-0.7-4.9-1.1c-0.5-0.5-0.5-1-0.1-1.6
		C127.6,159.4,129.3,159.2,130.8,162.2z"/>
	<path class="st6" d="M405.1,93.9c3.8-0.6,7.6-1.1,11.4-1.7c-3.7,3.6-8.6,2.5-13,2.8c-1.7,0.1-0.2-1.2,0.1-1.9
		C404.4,92.7,404.6,93.5,405.1,93.9z"/>
	<path class="st104" d="M406.6,74.5c0.6,0.3,1.2,0.5,1.8,0.8c-0.2,4.1,0.7,8.3-1.6,12.2c-0.6-0.4-0.3-1.2-0.7-1.6
		C406.9,82,406.7,78.2,406.6,74.5z"/>
	<path class="st105" d="M286.7,116.8c-0.9-1.9,1-2.3,1.8-3c3.2-2.8,5.3-6.9,9.6-8.5C294.7,109.5,290.8,113.3,286.7,116.8z"/>
	<path class="st106" d="M452.8,44c-4.7-2.9-9-1-13.4,0.9c-0.5-0.5-0.5-1,0-1.5c4.1-1.2,8-4.1,12.4-1C452.4,42.9,452.6,43.4,452.8,44
		z"/>
	<path class="st107" d="M301.3,101.2c-1.2-0.9-0.2-1.6,0.3-2.3c2.3-3.8,4-7.9,4.7-12.3c0.2-0.4,0.5-0.4,0.7,0
		C307.4,92.4,304.1,96.7,301.3,101.2z"/>
	<path class="st108" d="M173.9,116c-2.3,2.6-8.9,4.4-12.2,3.3C165.8,118.2,169.9,117.1,173.9,116z"/>
	<path class="st109" d="M290.5,175.7c0.8-0.4,1-1.1,1.1-1.9c0.5,0.9,1,1.8,1.5,2.7c-0.6,3.4,1.7,6.5,0.8,9.9
		C291.5,183.2,292.3,179,290.5,175.7z"/>
	<path class="st109" d="M285.7,171.7c0.1-0.9,0.2-1.8,0.4-3.1c1.1,1.9-0.2,4.4,2.3,5.3c-0.3,1.8,0.6,3.7-0.8,5.8
		C285.6,177.2,285.7,174.4,285.7,171.7z"/>
	<path class="st110" d="M231.9,119.1c2-1.8,3.9-0.1,5.7,0.3c2.8,0.7,5.5,0.6,8.1-0.3c1.1-0.1,1.2,0.5,1,1.3
		c-2.8,1.4-5.6,0.6-8.5,0.5C236.3,120.3,233.9,120.5,231.9,119.1z"/>
	<path class="st111" d="M276.1,226.1c0,0.5-0.1,1.1-0.1,1.6c-1.3-3.9-3.1-7.5-5.9-10.5c-0.6-0.6-0.4-1.2,0.3-1.7
		c1.3,1.7,2.6,3.4,4,5.1C275.2,222.3,276,224.1,276.1,226.1z"/>
	<path class="st112" d="M70.4,185.3c0.7-0.1,1.3,0.1,1.6,0.8c-0.3,0.4-0.6,0.4-1,0.1c-4.3,0.3-8.8-0.9-13,1.4
		c-1,0.5-2.4,0.6-3.3-0.5c1.9-0.6,3.7-1.2,5.6-1.8C63.7,184.7,67,184.8,70.4,185.3z"/>
	<path class="st113" d="M351.3,109.5c-0.4-0.1-1.4-0.3-0.9-0.8c0.8-0.9,2.1-1,3.4-0.9c3.5,0.3,7,0.5,10.4,0.8
		c-2.5,1.7-5.3,1.1-7.8,0.7C354.6,109,352.9,109,351.3,109.5z"/>
	<path class="st114" d="M324.2,99c2.3-1.3,4.9-2,7.5-2.5c-0.5,2.1-1.9,3.2-4.1,3.2c-1.6,0.3-3.3,0.5-5,0.8
		C322.6,99.3,323.9,99.8,324.2,99z"/>
	<path class="st115" d="M339.8,173.2c1.5-4.8-1.8-8.3-3.4-12.3c0.3-0.4,0.5-0.3,0.7,0c2.1,2.2,3.6,4.8,4.2,7.7
		C341.7,170.2,342,172.2,339.8,173.2z"/>
	<path class="st116" d="M237.6,186.2c0,0.3,0,0.5,0,0.8c-4.1-1.1-8.2-2.1-12.2-3.2C229.8,182.9,233.7,184.4,237.6,186.2z"/>
	<path class="st117" d="M145.4,124.1c0-0.2,0-0.5,0-0.7c4.4-0.8,8.4-3.2,13-2.5C154.3,122.8,149.9,123.9,145.4,124.1z"/>
	<path class="st118" d="M138.8,165.8c-3.5,2.9-7.8,3.5-12.3,3.8c0.8-0.4,1.6-0.9,2.4-1.3c3.5-0.4,6.6-2.2,9.8-3.3
		c0.3,0.2,0.4,0.4,0.3,0.5C139,165.7,138.9,165.8,138.8,165.8z"/>
	<path class="st119" d="M121.6,144.5c1.3-2.5,4.2-2.3,6.1-3.8c1.2-0.7,2.3-2.6,3.9-0.5c-1.7,2.8-5.4,2.1-7.4,4.4
		c-0.5,0.5-1.1,0.4-1.6,0C122.2,144.5,121.9,144.5,121.6,144.5z"/>
	<path class="st120" d="M155.3,152.8c3.2-3,7.1-4.4,11.3-5C163.3,150.4,159.4,151.7,155.3,152.8z"/>
	<path class="st121" d="M238.5,128.2c-4.5-0.3-8.5-1.9-12.2-4.2c4.8,0.3,9,2.4,13.3,4C239.2,128.6,238.9,128.6,238.5,128.2z"/>
	<path class="st122" d="M238.5,128.2c0.4,0,0.7-0.1,1.1-0.1c3.4,0.9,6.9,1.8,10.3,2.7C245.6,132.1,242,130.3,238.5,128.2z"/>
	<path class="st115" d="M307.2,186.2c1.2,0,1.9,0.9,2.7,1.6c2.7,2.3,3,0.6,2.9-1.8c1.4,1.2,2.4,3.2,1.1,4.4c-1.2,1-3.3-0.2-4.5-1.4
		C308.6,188.2,307.9,187.1,307.2,186.2z"/>
	<path class="st123" d="M272.6,177c-0.8,0.3-1.6,0.7-2.3,1c-1.8-0.7-3.7-1.1-5.7-0.7c0-0.1,0-0.3,0.1-0.4c2.4-2.7,5.5-0.2,8.1-1.3
		C273.2,176.2,273.2,176.6,272.6,177z"/>
	<path class="st124" d="M273.6,131.5c0-0.2,0-0.5,0-0.7c3.8-1.1,7.1-3.1,10.6-4.9C281.8,129.9,277.8,130.9,273.6,131.5z"/>
	<path class="st125" d="M288.3,196c4.3-0.5,3.5-3.2,2.5-6c4.7,1,2,4.6,1.5,6.4C291.5,198.9,289.6,196.4,288.3,196z"/>
	<path class="st126" d="M408.3,100.4c-3.5,1.4-7.1,1.4-10.6,0C401.2,99.2,404.8,99.7,408.3,100.4z"/>
	<path class="st127" d="M312,91.5c1,3.1-0.9,7.6-4.1,9.8C309.2,98,310.6,94.7,312,91.5z"/>
	<path class="st128" d="M337.2,102.9c-0.5-0.2-1.1-0.4-1.6-0.7c-0.6-0.7-2.4-1.3-0.2-2.2c1.9-0.8,3.7-1.5,5.8-1.4
		c0.5,0.1,1.1,0.1,2.7,0.3c-2.2,0.6-3.4,1.2-4.6,1.1C336.9,100,337.3,101.6,337.2,102.9z"/>
	<path class="st90" d="M306.9,86.6c-0.2,0-0.5,0-0.7,0c1.4-5.3,1.4-5.3-4.9-8.2C308.3,78.3,309.6,80.2,306.9,86.6z"/>
	<path class="st129" d="M353.6,48.2c-1.5,1.4-3.3,0.8-4.9,0.7c-2.2-0.2-2.6,0.7-2.5,2.5c-1.1-0.7-2.3-1.3-3.1-2.8
		C346.7,47.7,350.1,48.1,353.6,48.2z"/>
	<path class="st130" d="M439.3,43.4c0,0.5,0,1,0,1.5c-3.5,0.5-6,3.8-9.9,3.2C432.4,45.9,436.1,45,439.3,43.4z"/>
	<path class="st107" d="M372.4,89.7c-0.1,0.8-0.1,1.6-0.2,2.4c0.1-3.4-3.8-5.9-2.4-9.6C371.2,84.8,372.2,87.1,372.4,89.7z"/>
	<path class="st41" d="M108.7,144.4c-2.2-0.9-3.9-3-6.6-2.4c3.1-1.3,6.1-2.2,8.2,1.5c-0.1,0.1-0.2,0.3-0.2,0.4
		C109.6,144.3,109.1,144.2,108.7,144.4z"/>
	<path class="st131" d="M357.8,165c1.3-3.6,3.7-6,7.3-7.3C362.7,160.1,360.2,162.6,357.8,165z"/>
	<path class="st132" d="M365,22.1c-2.8,1.8-5.7,3.4-9.2,3.2c2.7-2.2,6-2.9,9.2-3.9c0.3,0.2,0.4,0.3,0.3,0.5
		C365.2,22,365.1,22.1,365,22.1z"/>
	<path class="st133" d="M122.5,144.5c0.5,0,1.1,0,1.6,0c1.4,2.8,5,3.9,5.7,7.3c0,0.3,0,0.6-0.1,1
		C127.4,150.1,124.9,147.3,122.5,144.5z"/>
	<path class="st134" d="M210.6,115.4c-3.9-0.7-5.7-3.6-7.2-6.8C205.7,110.8,208.1,113.1,210.6,115.4z"/>
	<path class="st135" d="M209.1,98c0.3,0.3,0.5,0.6,0.8,0.8c0.3,2.6-1.3,4.8-1.6,7.3c0.2,0.4,0.2,0.7-0.1,1c-2.2-0.7-1.1-2.3-0.8-3.5
		C207.9,101.7,208.5,99.9,209.1,98z"/>
	<path class="st136" d="M299.6,112.3c-1.3,3.7-3.5,6.4-7.4,7.5C294.7,117.3,297.2,114.8,299.6,112.3z"/>
	<path class="st137" d="M96.3,179.5c-1.6,0.7-1.7,3.2-3.9,3.2c-1.2-2.5,1.3-3.3,2.3-4.7c0.5-0.3,1.1-0.6,1.6-0.9
		C96.3,177.9,96.3,178.7,96.3,179.5z"/>
	<path class="st138" d="M347,39.3c-2.7,1.2-5.4,1.1-8.1,0C341.6,37.3,344.3,38.7,347,39.3z"/>
	<path class="st139" d="M138.8,165.8c0-0.3,0-0.5,0-0.8c2.9-1.7,5.8-3,9-4c0,0.2,0,0.5,0,0.7C145.1,163.6,141.9,164.7,138.8,165.8z"
		/>
	<path class="st140" d="M68.6,154.3c0,1.1-0.7,2.3,0.1,3.4c-1.5,0.7-3.1,0.8-5.8,0.9C65.3,156.7,66.9,155.5,68.6,154.3z"/>
	<path class="st141" d="M214.8,72.7c-0.1-0.4-0.1-0.8-0.2-1.2c0.4-2.5,1.5-4.8,2.7-7C218.5,67.9,216.1,70.1,214.8,72.7z"/>
	<path class="st142" d="M213.9,183c-3.8-0.1-5.2-2.8-6.5-5.8C209.6,179.1,211.8,181,213.9,183z"/>
	<path class="st143" d="M176.5,144.6c-0.7-0.7-0.1-1,0.4-1.1c2.7-0.5,4.5-2.1,5.4-4.7C183.1,143.5,179.9,144.2,176.5,144.6z"/>
	<path class="st105" d="M289.1,66c3.7,0.3,5.1,3,6.5,5.8C292.9,70.5,291.6,67.7,289.1,66z"/>
	<path class="st144" d="M393.5,101.2c0.3,0.2,0.6,0.3,1,0.5c-2.4,0.9-4.5,2.9-7.4,2.1C389.1,102.7,391.1,101.3,393.5,101.2z"/>
	<path class="st145" d="M323.2,55.4c0.3,0.2,1.2,0.6,1,0.6c-2.2,0.3-2.6,2.1-3.4,3.6C317.2,55.8,321.2,56.2,323.2,55.4z"/>
	<path class="st146" d="M337.2,160.9c-0.2,0-0.5,0-0.7,0c-2.2-1.8-4.7-3.4-5.7-6.3C333.5,156.1,335.5,158.3,337.2,160.9z"/>
	<path class="st147" d="M51.4,168.9c0.6-0.8,1.5-2,2.4-0.9c1,1.3,0.7,3.3,0,4.7c-0.6,1.1-1.8,0.7-2.4-0.4
		C52.4,171.2,51.1,170,51.4,168.9z"/>
	<path class="st148" d="M278.5,187c2.9,1.3,3.2,4.4,4.7,6.7C279.8,192.7,280.1,189.2,278.5,187z"/>
	<path class="st149" d="M406,85.8c0.2,0.5,0.5,1.1,0.7,1.6c0.3,2.4-2,4.1-1.6,6.5c-0.5-0.3-1-0.5-1.6-0.8
		C404.3,90.7,405.1,88.2,406,85.8z"/>
	<path class="st150" d="M98.7,143.6c0.3,0.2,0.7,0.3,1,0.5c-2.4,0.9-4.5,2.9-7.4,1.4C94.4,144.9,96.5,144.3,98.7,143.6z"/>
	<path class="st151" d="M57.3,161.7c2.6,0,5.3,0,8.9,0c-3.5,1.7-7.4-0.9-8.9,3.3C57.1,163.8,56.7,162.8,57.3,161.7z"/>
	<path class="st152" d="M226.3,124.1c-2.5-0.3-5.2-0.6-6.4-3.4C222.1,121.7,224.7,121.9,226.3,124.1z"/>
	<path class="st153" d="M424.6,50.6c-0.8,2.8-3.2,3-5.6,3.3C420.6,52.3,422.2,50.9,424.6,50.6z"/>
	<path class="st154" d="M286.5,156.3c1.7-2.2,3-4.8,6.2-5.1c-2,1.9-3.6,4.2-6.2,5.5C286.4,156.6,286.4,156.4,286.5,156.3z"/>
	<path class="st155" d="M418.8,54.5c1.3,2.1,4.8,1.9,5,5.1c-1.8-1-3.3-2.5-5.3-3.2C416.1,55.5,418.4,55.1,418.8,54.5z"/>
	<path class="st156" d="M386.2,136.3c-0.6-2.4-2.2-4.6-0.9-7.2C385.8,131.5,387.6,133.7,386.2,136.3z"/>
	<path class="st102" d="M296.3,40.8c-2.6-0.7-4-2.9-5.5-4.9c-0.3-0.1-0.4-0.3-0.3-0.4c0.1-0.1,0.2-0.2,0.3-0.2
		C293.2,36.5,295,38.4,296.3,40.8z"/>
	<path class="st157" d="M196.3,170.9c-0.3-2.3,3.6-1.7,3-4.3C202.5,171,197.7,169.8,196.3,170.9z"/>
	<path class="st158" d="M66.1,182.9c-0.9,0-1.8,0.2-2.4-0.7c1.6-1.4,3.2-2.8,4.8-4.2c0.3,0,0.6,0,0.9,0
		C69.7,180.6,67.4,181.4,66.1,182.9z"/>
	<path class="st159" d="M359.3,115.2c-2.8,0.7-4.6-1.1-6.5-2.7C355.4,112.4,357.4,113.8,359.3,115.2z"/>
	<path class="st160" d="M179.8,150.3c-1.2-1.2-3.1,0.8-4.2-0.9c1.1-0.4,2.2-0.9,3.3-1.3c0.7-0.2,1.6-1,1.9,0.2
		C181.1,149.1,180.5,149.9,179.8,150.3z"/>
	<path class="st145" d="M305.3,51.4c-2.7-1-4.7-2.6-4.7-5.7C302.2,47.6,304.1,49.2,305.3,51.4z"/>
	<path class="st65" d="M238.4,121c2.7-0.5,5.7,0.6,8.3-0.9c0.2-0.5,0.4-0.5,0.8-0.1c-1.5,3.3-4.6,0.8-6.8,1.8
		C239.8,121.7,239,121.8,238.4,121z"/>
	<path class="st161" d="M113.6,174.8c1.5,1.6-0.8,2.1-0.9,3.2c-0.7,1.4-1.3,2.9-3.3,2.6c-0.2-0.2-0.3-0.4-0.2-0.7
		c0.1-0.2,0.2-0.3,0.2-0.3C110.8,178,112.2,176.4,113.6,174.8z"/>
	<path class="st162" d="M345.2,173c0.3,0.3,0.7,0.6,1,0.9c0.3,0.2,0.8,0.3,0.8,0.8c-1,1.2-2.2,1.7-3.8,1.7
		C343.4,174.8,344.2,173.8,345.2,173z"/>
	<path class="st163" d="M361.8,52.2c-2.5-0.3-4.4-2-6.7-2.7c0,0,0-0.2,0-0.4c0.1-0.1,0.2-0.2,0.3-0.3
		C357.9,49.2,360.2,50.1,361.8,52.2z"/>
	<path class="st5" d="M70.4,185.3c-3.4,0-6.7,0-10.1,0c0.3-0.2,0.6-0.5,0.9-0.7C64.3,185,67.5,183.9,70.4,185.3z"/>
	<path class="st164" d="M62.3,165.9c1.1-1.8,1.1-1.8,5.5-1.8c0,0.3-0.1,0.6-0.1,0.9C65.9,165.3,64.1,165.6,62.3,165.9z"/>
	<path class="st165" d="M368.4,34.1c-0.9,0.9-1.8,1.7-2.7,2.6c0.4-1.6,0.7-3.3,1.1-4.9C367.7,32.3,368.3,33,368.4,34.1z"/>
	<path class="st145" d="M223.8,115.9c2.3-1.2,3.8-0.5,4.6,1.9C226.7,117.5,225.2,116.8,223.8,115.9z"/>
	<path class="st166" d="M290.7,35.3c0,0.2,0,0.4,0,0.6c-2.5-0.1-4.8-1.2-7.3-0.8c0.3-0.3,0.6-0.6,0.9-0.9
		C286.5,34.4,288.8,33.6,290.7,35.3z"/>
	<path class="st167" d="M112.7,168.2c1.3-1.7,2.4-3.6,4.7-4c-1.3,1.6-2.6,3.3-3.9,4.9C113,169,112.9,168.5,112.7,168.2z"/>
	<path class="st168" d="M125.7,161.8c0,0.5,0,1.1,0.1,1.6c-1.2,1.1-0.5,2.6-0.7,3.9c-2-0.3-0.6-2.4-1.7-3.1
		C123.9,163.1,124.6,162.3,125.7,161.8z"/>
	<path class="st169" d="M63.7,178.7c0.9-2.5,2.3-4.4,5.2-4.7C67.4,175.9,65.8,177.6,63.7,178.7z"/>
	<path class="st65" d="M396.2,94.9c-0.5-2.1-0.2-3.7,2.4-4.1C398.2,92.3,397.5,93.8,396.2,94.9z"/>
	<path class="st170" d="M51.4,168.9c1.7,1.1,3.4,2.3,0,3.4C50.3,171.2,50.2,170,51.4,168.9z"/>
	<path class="st171" d="M251.5,191.8c0.3-0.2,0.5-0.5,0.8-0.7c1.5,0.9,4.2-0.1,4.6,2.7C255.2,193.1,253.4,192.5,251.5,191.8z"/>
	<path class="st172" d="M376.5,71c-3-0.3-3.1-3-4.1-4.9C374.5,67.2,375.2,69.3,376.5,71z"/>
	<path class="st172" d="M372.5,66.1c-2.3-1.3-3.8-3.1-4.1-5.8C370,62,371.7,63.7,372.5,66.1z"/>
	<path class="st173" d="M423.9,59.6c2.4,0.4,3.6,2.3,4.8,4.1c-0.1,0.2-0.1,0.5,0,0.7C426.6,63.4,425.2,61.5,423.9,59.6z"/>
	<path class="st174" d="M208.2,107.1c0-0.3,0.1-0.7,0.1-1c1.6,0.7,3.8,0.8,3.9,3.4C210.8,108.7,209.5,107.9,208.2,107.1z"/>
	<path class="st7" d="M391,126.8c2.5,1.5,2.8,2.5,1.8,5.5C392.2,130.4,391.6,128.6,391,126.8z"/>
	<path class="st175" d="M333.2,102.1c-1.9,1.2-3.8,1.2-5.7,0C329.4,102.2,331.3,100.5,333.2,102.1z"/>
	<path class="st176" d="M385.5,146.1c0-0.5,0-1,0-1.6c1.3-1.2,2.6-2.4,3.9-3.6C389.4,143.7,387.2,144.7,385.5,146.1z"/>
	<path class="st177" d="M166.6,147.9c1.7-1.3,3.2-3.3,5.7-1.7C170.5,147,168.7,148,166.6,147.9z"/>
	<path class="st178" d="M115.9,145.4c-1.1,1.4-2.2-0.4-3.3,0c-1.4,0.3-2.5,0.1-2.4-1.6c0,0,0-0.2,0-0.2
		C112.4,143.4,114.3,144.1,115.9,145.4z"/>
	<path class="st127" d="M211.2,174c2.5,0.1,3.8,1.6,4.4,3.8C213.8,176.9,212.4,175.6,211.2,174z"/>
	<path class="st179" d="M358.7,27.1c1.6-2.1,3.7-0.7,5.5-0.7c0,0,0.1,0.2,0.1,0.3c0,0.1-0.1,0.2-0.2,0.3
		C362.3,27.1,360.5,27.1,358.7,27.1z"/>
	<path class="st180" d="M314.4,142c1.4-1.4,2.7-0.5,4.1,0.1c0.8-0.3,1,0.1,0.8,0.8c0,0.3,0,0.6,0,0.8
		C317.7,143.2,316.1,142.6,314.4,142z"/>
	<path class="st16" d="M57.3,168.2c0.9,0,1.8-0.2,2.4,0.8c0,1-0.2,1.8-1.5,1.6C56.4,170.4,57.4,169.1,57.3,168.2z"/>
	<path class="st124" d="M287.3,184.5c-2.5,0.2-3.6-1.5-4.8-3.3c0.4-0.5,0.7-0.5,1.2-0.1C284.9,182.3,286.1,183.4,287.3,184.5z"/>
	<path class="st115" d="M112.7,168.2c0.3,0.3,0.6,0.6,0.8,0.9c-0.8,1.1-1.6,2.2-2.5,3.3c-0.3-0.6-0.5-1.1-0.8-1.7
		C111.1,169.9,111.9,169,112.7,168.2z"/>
	<path class="st181" d="M184.6,123.4c1.1-0.3,2.2-0.6,3.3-0.9c0,1.2,0.2,2.4-0.7,3.4c-0.7-0.4-0.3-1.3-0.9-1.8
		C185.6,124.1,185,124,184.6,123.4z"/>
	<path class="st182" d="M303.7,181.3c0.5-0.5,1.1-1.1,1.6-1.6c0.3,0.6,0.6,1.2,0.9,1.8c0.5,1,0.9,2,0,3
		C305.4,183.4,304.6,182.3,303.7,181.3z"/>
	<path class="st183" d="M423,95.6c0.3,0.3,0.5,0.5,0.8,0.8c-1.6,0.1-1.8,3.3-4,1.7C420.9,97.2,421.9,96.4,423,95.6z"/>
	<path class="st184" d="M167.4,163.3c0.2-1.9,0.9-3.3,3.2-2.6C169.5,161.6,168.5,162.5,167.4,163.3z"/>
	<path class="st185" d="M175.6,156.2c0-2.3,1.7-3.2,3.2-4.3C178.7,154,177,155,175.6,156.2z"/>
	<path class="st186" d="M285.8,166.5c-0.3,0-0.5,0.1-0.8,0.1c-1.2-1.3-3.2-2.7,0-4C285.3,163.9,285.5,165.2,285.8,166.5z"/>
	<path class="st187" d="M306.2,184.4c0-1,0-2,0-3c0.8,0.5,1.6,1.1,2.4,1.6c-0.5,0.8-1.1,1.5-1.6,2.3
		C306.8,185.1,306.5,184.7,306.2,184.4z"/>
	<path class="st188" d="M365,22.1c0-0.3,0-0.5,0-0.8c1.8-0.5,3.6-1.4,5,0.7C368.3,22,366.7,22.1,365,22.1z"/>
	<path class="st189" d="M218.9,180.4c1.9-0.9,3.1-0.5,3.1,1.8C221,181.6,219.9,181,218.9,180.4z"/>
	<path class="st190" d="M330,181.3c-0.3-0.1-0.7-0.3-1-0.4c1.3-0.9,2.3-2.5,4.2-1.3C332.1,180.1,331,180.7,330,181.3z"/>
	<path class="st44" d="M109.4,179.6c0,0.3,0,0.6,0,0.9c0.4,0.6-0.2,1.4,0.3,2c-0.2,0.5-0.5,0.8-1.1,0.5c-0.5,0-1,0.1-1.5,0.1
		c-0.1-0.3-0.1-0.7-0.2-1C107.8,181.3,108.6,180.4,109.4,179.6z"/>
	<path class="st191" d="M318.5,66.1c-1.8-0.1-2.3-1.1-1.8-3.2C317.6,63.8,318.3,64.8,318.5,66.1z"/>
	<path class="st185" d="M118.4,169.6c-0.2,1.9-0.9,3.5-3.2,3.5C116.2,171.9,117.3,170.8,118.4,169.6z"/>
	<path class="st192" d="M233.4,42.4c-0.1,2.2-1.2,2.7-3.1,1.8C231.2,43.3,232.1,42.5,233.4,42.4z"/>
	<path class="st193" d="M355.2,25.5c-0.1,1.1,1.1,1.3,1.6,2.1c-1.1,0.3-2.1,0.6-3.2,0.9c-0.5-0.5,0-1.1-0.1-1.7
		C353.9,26.2,354.4,25.7,355.2,25.5z"/>
	<path class="st194" d="M355,58c2.7,0.6,3.2,1.1,3.5,3.2C357.3,60.2,356.1,59.1,355,58z"/>
	<path class="st163" d="M368.4,60.4c-2.2-0.5-2.9-2.2-3.3-4.1C366.8,57.1,367.6,58.8,368.4,60.4z"/>
	<path class="st146" d="M58.7,175.2c-0.1,2-0.7,3.6-3.2,3.6C56.3,177.4,57.4,176.2,58.7,175.2z"/>
	<path class="st195" d="M463.9,56.3c-1.8-0.8-2.6-2-1.7-4C462.7,53.6,463.3,55,463.9,56.3z"/>
	<path class="st194" d="M365.1,56.3c-1.6-1-3.2-2-3.3-4.1C363.4,53.2,364.8,54.3,365.1,56.3z"/>
	<path class="st148" d="M202.5,108.7c-0.4,1.7-0.9,3.3-3.2,2.4C200.4,110.4,201.4,109.5,202.5,108.7z"/>
	<path class="st196" d="M205.6,169.3c2.1-0.7,2.6,0.5,2.6,2.2C207.3,170.8,206.4,170.1,205.6,169.3z"/>
	<path class="st197" d="M271.6,178.9c2.3,0,3.5,1.2,3.5,3.5C274,181.2,272.8,180.1,271.6,178.9z"/>
	<path class="st198" d="M364.7,49.9c2.4,0,3.5,1.3,3.6,3.6C367,52.3,365.8,51.1,364.7,49.9z"/>
	<path class="st199" d="M98.8,165.8c-0.1-0.6-0.7-1.4,0.4-1.5c1.2-0.2,2.1,0.3,2,1.7C100.4,165.9,99.6,165.8,98.8,165.8z"/>
	<path class="st163" d="M373.1,75.9c-0.5,0-1.1,0.1-1.6,0.1c-0.5-0.8-1.1-1.6-1.6-2.4C371.9,73,372.2,74.9,373.1,75.9z"/>
	<path class="st200" d="M333.2,150.9c2-1,2.4,0.2,2.3,1.8C334.8,152.1,334,151.5,333.2,150.9z"/>
	<path class="st201" d="M147.2,156.1c0.4-2,1.5-2.1,3-1.1C149.2,155.4,148.2,155.8,147.2,156.1z"/>
	<path class="st202" d="M92.3,167.3c-0.2-0.5-0.5-1-0.7-1.5c1.3,0.1,2.8-0.6,4,0.7C94.4,166.8,93.4,167,92.3,167.3z"/>
	<path class="st203" d="M353.5,26.9c1,0.5,0.2,1.1,0.1,1.7c-0.7,0.4-1.3,1-2.2,0.6C351.7,28,352.6,27.4,353.5,26.9z"/>
	<path class="st197" d="M283.7,181.2c-0.4,0-0.8,0.1-1.2,0.1c-0.4-1.1-1.5-2.2,0-3.3C282.9,179.1,283.3,180.1,283.7,181.2z"/>
	<path class="st166" d="M376.4,64.6c1.9-0.2,2.6,0.6,1.8,2.4C377.6,66.1,377,65.3,376.4,64.6z"/>
	<path class="st204" d="M178.8,163.3c0.4,2.1-0.6,2.5-2.3,1.9C177.2,164.5,178,163.9,178.8,163.3z"/>
	<path class="st205" d="M366.6,69.5c2.4-0.7,2.2,1.2,2.5,2.6C368.2,71.3,367.4,70.4,366.6,69.5z"/>
	<path class="st206" d="M392,137.2c1.1,2,0.2,2.5-1.7,2.4C390.9,138.8,391.5,138,392,137.2z"/>
	<path class="st207" d="M445.1,76c-0.9-1.4,0.5-2.3,1.1-2.4c0.8-0.2,0.3,1,0.5,1.5C446.1,75.3,445.6,75.7,445.1,76z"/>
	<path class="st185" d="M172.4,159.3c-0.5-2.3,1.2-2.2,2.6-2.4C174.1,157.7,173.2,158.5,172.4,159.3z"/>
	<path class="st208" d="M262.2,195.9c0.6-0.8,1.3-0.9,2.1-0.4c0.6,0.4,1,0.9,0.2,1.5C263.7,196.6,262.9,196.2,262.2,195.9z"/>
	<path class="st209" d="M347.1,174.8c-0.3-0.3-0.6-0.5-0.8-0.8c1.2-0.5,2-1.9,3.6-1.6C348.9,173.2,348,174,347.1,174.8z"/>
	<path class="st163" d="M350.9,54.8c1.5,0.2,3.1,0.1,2.7,2.4C352.7,56.4,351.8,55.6,350.9,54.8z"/>
	<path class="st24" d="M209.8,92.8c0,1.5,0.6,3-0.6,4.3C209.1,95.7,209.1,94.2,209.8,92.8z"/>
	<path class="st210" d="M122.8,151c-1.1-0.4-2.5-0.7-1.9-2.5C122,149,122.7,149.8,122.8,151z"/>
	<path class="st39" d="M454,76c1.4,0.2,2.9-0.6,4.1,0.7C456.7,76.6,455.2,77.2,454,76z"/>
	<path class="st211" d="M371.6,23.8c-0.6-0.6-1.1-1.2-1.7-1.9c1.4-0.2,2.6,0,3.1,1.6c0,0,0,0,0,0C372.7,24.2,372.2,24.2,371.6,23.8z
		"/>
	<path class="st212" d="M366.8,156c-0.5-1.6,0.1-2,1.6-1.6C367.8,154.9,367.3,155.5,366.8,156z"/>
	<path class="st83" d="M186.2,124.1c0.7,0.4,0.8,1.1,0.9,1.8c-0.1,0.8-0.1,1.5-0.2,2.3C185.7,127,186.4,125.5,186.2,124.1z"/>
	<path class="st213" d="M218.9,113.5c1.3-0.9,2.2-1,2.2,1C220.3,114.1,219.6,113.8,218.9,113.5z"/>
	<path class="st207" d="M467.1,71.8c0,0.5-0.1,1-0.2,2.1c-0.8-1.7-1-2.7,0.1-3.7C467.1,70.8,467.1,71.3,467.1,71.8z"/>
	<path class="st209" d="M309.5,141.2c1-1,2.1-0.9,3.9-0.2c-1.2,0.2-1.8,0.3-2.5,0.4C310.5,141.3,310,141.2,309.5,141.2z"/>
	<path class="st207" d="M466.3,66.1c0,0.8,0,1.6,0,2.4c-0.7-1.1-1.3-2.2,0-3.1C466.3,65.6,466.3,65.9,466.3,66.1z"/>
	<path class="st214" d="M281.1,165.8c-0.4-0.1-0.7-0.2-1.1-0.3c0.4-0.5,0.9-1,1.3-1.6c0.1,0.3,0.3,0.7,0.4,1
		C281.5,165.3,281.3,165.6,281.1,165.8z"/>
	<path class="st215" d="M368.4,27.9c-0.3,0.3-0.6,0.5-0.9,0.8c-0.5-0.3-1.1-0.6-1.6-1C366.8,26.6,367.6,26.8,368.4,27.9z"/>
	<path class="st216" d="M191.9,195.1c-1.7,0.9-1.5-0.9-2.1-1.5c-1.7-1.8-3.3-3.8-6-3.2c-2.8,0.7-2.6,3.3-2.5,5.8
		c-1.2-0.9-0.6-1.9-0.9-2.8c0.8-4,4.3-5.7,7.6-3.3C189.7,191.4,191.5,192.8,191.9,195.1z"/>
	<path class="st217" d="M409.2,111.9c0-0.5-0.1-1-0.1-1.6c0.6-0.3,1.3-0.5,1.9-0.8c2.9-1.8,6.6-0.9,9.5-2.8c2.9-0.2,5.2-2.6,8.2-2.2
		c1.3-0.2,2.4-0.7,3.4-1.5c0.6-0.7,1.3-1.2,2.2-1.1c1-0.3,2-0.6,3.1-0.9c0.3,1.6-0.8,2.1-2,2.6C426.9,107,418.3,110.3,409.2,111.9z"
		/>
	<path class="st218" d="M448.3,96.4c1.1-0.5,2.3-1.1,3.4-1.6c1.8-1.5,4-1.9,6.2-1.9c0.4,0.3,0.4,0.6,0.2,1
		C455,95.1,452.3,98.2,448.3,96.4z"/>
	<path class="st219" d="M458.1,93.9c0-0.3,0-0.5,0-0.8c0.2-0.9,1-1.2,1.7-1.5l-0.1,0c1.6-0.6,3-1.8,4.9-1.6c1.2,2.4-1.1,2.4-2.2,2.9
		C461.1,93.4,459.6,93.6,458.1,93.9z"/>
	<path class="st220" d="M464.7,90c-1.6,0.6-2.9,2.1-4.9,1.6c2.4-1.8,4.8-3.8,8.1-3.6c0,0.6-0.3,0.9-0.8,1
		C466.3,89.3,465.5,89.6,464.7,90z"/>
	<path class="st221" d="M467.1,88.9c0.3-0.3,0.6-0.7,0.8-1c1-0.5,2.1-1,3.1-1.5C470.9,89.9,470.4,90.2,467.1,88.9z"/>
	<path class="st222" d="M440.2,99.7c1.2-0.8,2.5-1.5,4-1.7c0.3,0.1,0.7,0.3,1,0.4C443.7,99.4,442.4,101.3,440.2,99.7z"/>
	<path class="st223" d="M109.5,182.1c-1-0.5-0.1-1.1-0.1-1.6c1.1-0.8,2.2-1.6,3.3-2.5c0.3,0.5,0.9,0.8,1.4,0.5
		c4.2-2.6,9.2-3,13.7-4.7c5.9-2.2,12.3-3.1,18-5.8c1.5-0.7,3.1-1.2,4.5,0.1c-1.9,2.1-4.8,2.4-7.3,3.1c-6,1.7-11.7,4.6-18,5.1
		c-1.5-0.2-2.4,0.7-3.3,1.7C117.3,178.6,113.8,181.5,109.5,182.1z"/>
	<path class="st224" d="M124.9,176.4c8.4-2.8,16.9-5.5,25.3-8.3c1.1-0.2,2.2-0.5,3.3-0.7c0.3,0.2,0.4,0.3,0.3,0.5
		c-0.1,0.2-0.2,0.3-0.3,0.3c-2.5,1.1-4.9,2.2-7.4,3.3c-5.9,1.7-11.7,3.4-17.6,5.2C127.3,177,126.1,177.7,124.9,176.4z"/>
	<path class="st225" d="M71,186.2c0.3,0,0.7,0,1-0.1c3-0.6,5.8,1.2,8.8,1c2.6-0.6,5,0.5,7.5,0.8c1.4,0.6,2.7,1.2,4.2,1.4
		c4.3-0.2,8-2.4,11.8-4c-2.2,4.1-6.3,4.5-10.2,4.9C88,190.8,82,189,76,187.6C74.3,187.2,72.4,187.6,71,186.2z"/>
	<path class="st226" d="M109.5,182.1c3.9-1.8,7.5-4.6,12.2-4.1c-3.8,1.7-7.5,3.5-11.3,5.2c-0.7,0.3-1.3,0.4-1.7-0.3
		C108.9,182.7,109.2,182.4,109.5,182.1z"/>
	<path class="st227" d="M146.2,171.5c1.1,0.1,2.4-0.4,3.2,0.7c-2.4,1-4.8,2-7.2,3C142.4,172.8,145.2,173.1,146.2,171.5z"/>
	<path class="st228" d="M420.8,107.1c-3,1.9-6.4,2.3-9.8,2.5c-1.2-0.1-2.4-0.2-3.6-0.3c4.2-0.6,8.1-2.4,12.3-2.3
		C420.1,106.6,420.5,106.6,420.8,107.1z"/>
	<path class="st229" d="M459.9,91.6c-0.6,0.5-1.2,1-1.7,1.5c-2.1,0.6-4.3,1.1-6.4,1.7c-0.4-0.2-1.9-0.3-0.6-0.9
		C453.8,92.6,456.7,91.2,459.9,91.6z"/>
	<path class="st230" d="M420.8,107.1c-0.4,0-0.7-0.1-1.1-0.1c2.9-1.1,5.4-3.9,9-2.4C426.1,105.4,423.8,107.2,420.8,107.1z"/>
	<path class="st231" d="M401,105.4c0,0.3,0,0.5,0,0.8c-0.5,0.8-1.9,1.2-0.3,2.5c1.2,1-0.5,0.6-0.7,0.9c-0.7-0.1-1.4-0.2-2.1-0.2
		C397.3,106.8,399.2,106.1,401,105.4z"/>
	<path class="st232" d="M450.9,88.3c0.9-3,3.6-3.2,5.9-4c-0.7,0.8-1.4,1.5-2,2.3c-0.6,1.3-1.8,1.8-3.1,1.8
		C451.4,88.3,451.1,88.3,450.9,88.3z"/>
	<path class="st233" d="M434.6,94.9c0.9-2.2,2.4-3,4.7-1.9C437.7,93.6,436.2,94.2,434.6,94.9z"/>
	<path class="st234" d="M444.2,91.4c0.8-0.3,1.6-0.6,2.3-0.8c0.4,0.1,1.4,0.2,0.9,0.6C446.6,92.1,445.4,92.9,444.2,91.4z"/>
	<path class="st235" d="M451.6,88.3c1-0.6,2.1-1.2,3.1-1.8C454.7,88.4,453.8,88.8,451.6,88.3z"/>
	<path class="st236" d="M434.4,101.9c-0.7,0.4-1.5,0.7-2.2,1.1C432.2,101.2,433.1,101.1,434.4,101.9z"/>
	<path class="st237" d="M256.4,80.8c0.6,2.7-1,5-1.7,7.4c-3.1,10.6-4.6,21.6-6.6,32.5c0-1.9,0-3.9,0-5.8c-0.4-0.5-0.5-1.1-0.4-1.8
		c0.3-1.4,0.3-2.9,0.5-4.4c0.4-5.4,1.3-10.6,3.1-15.7c0-0.3,0-0.6,0-0.9c0.8-3.4,1.7-6.7,3-9.9c0-1.3,0-2.6,1.4-3.3
		C256.9,79.2,257,79.9,256.4,80.8z"/>
	<path class="st238" d="M251.4,93.1c-0.4,5.4-2.3,10.6-2.4,16.1c-0.8,1.3,0.1,2.9-0.7,4.3c0,0.5-0.1,1-0.1,1.5
		c-1,1.6-0.5,3.4-0.7,5.1c-0.3,0-0.5,0-0.8,0.1c-0.3-0.3-0.6-0.6-0.9-0.9c1.3-7.8,1.7-15.8,4-23.4C250.1,94.7,250.3,93.7,251.4,93.1
		z"/>
	<path class="st239" d="M255.7,79.3c-0.8,0.9-1,2.1-1.1,3.2c-0.2,0.3-0.5,0.3-0.7,0c1.6-7.8,3.3-15.5,8.3-22
		c-1.3,3.5-2.6,7.1-4,10.6C258.6,74.2,257.8,76.9,255.7,79.3z"/>
	<path class="st240" d="M292.5,50.6c-0.4-0.1-1.1-0.1-1.1-0.2c-1.3-5.6-4.7-5-8.7-3.2c-0.2,0.1-0.6-0.4-1-0.6c1.6-2.4,4-2.8,6.6-2.6
		c1.6-0.3,2.5,0.6,3.2,1.9C292.5,47.3,293.5,48.7,292.5,50.6z"/>
	<path class="st239" d="M292.5,50.6c-0.4-1.6-0.7-3.1-1.1-4.7c0.1-0.5,0.1-1.1,0.2-1.6c0.5,4.4,4.4,4.5,7.4,5.8c0,0,0,0.3,0,0.4
		c-0.1,0.1-0.2,0.2-0.3,0.3C296.6,50.7,294.6,50.6,292.5,50.6z"/>
	<path class="st241" d="M313.6,66.3c-0.6,0.6-1.3,0.6-1.7,0c-2.3-3.2-6.8-4.6-7.4-9.2c1.1,0,1.3,1,1.8,1.7c1.4,1.3,2.7,2.7,4.1,4
		C312,63.4,313.2,64.5,313.6,66.3z"/>
	<path class="st239" d="M288.3,44c-2.2,0.8-4.6,1.1-6.6,2.6c-0.5,0.1-0.9,0.1-1.4,0.2c1.2-2.4,4.9-4,9.5-4.2
		C289.9,43.7,288.5,43.2,288.3,44z"/>
	<path class="st242" d="M254,82.5c0.2,0,0.5,0,0.7,0c-1.3,3.2-1.2,6.8-3.3,9.7C250.7,88.6,252.5,85.6,254,82.5z"/>
	<path class="st243" d="M269.3,55.6c0.6,0.9,1.6,1.5,1.5,3.1c-2.9,0.6-6.2-0.4-8.7,1.9c0.1-2.9,2.3-2.7,4.1-2.5
		C268.4,58.3,269,57.2,269.3,55.6z"/>
	<path class="st244" d="M303,55.4c-0.3,0.1-0.9,0.4-1,0.3c-2.3-2.7-5.1-4.4-9.1-3.1c0.1-0.4,0.2-0.8,0.3-1.2c1.9,0,3.9,0,5.8,0
		c1.3,1.1,2.6,2.3,3.9,3.4c0.2,0.1,0.3,0.2,0.3,0.4C303.1,55.3,303.1,55.4,303,55.4z"/>
	<path class="st245" d="M313.6,66.3c-1.2-1-2.5-1.9-3.3-3.4c2.5-0.2,4.6,1.6,5.7,4.9C315.2,67.3,314.4,66.8,313.6,66.3z"/>
	<path class="st246" d="M303,55.4c0-0.2-0.1-0.4-0.1-0.6c2.9-0.1,3.2,2,3.3,4.1c-0.6-0.6-1.2-1.2-1.8-1.7
		C304.3,56.4,303.7,55.8,303,55.4z"/>
	<path class="st243" d="M273.5,51.3c-1.3,0.9-2.6,1.8-4,2.6C270.1,51.9,271.2,50.7,273.5,51.3z"/>
	<path class="st247" d="M232.7,134.7c5.5-0.3,11.1-0.7,16.3,1.7c0.4,0.2,0.1,0.7-0.2,0.9C243.6,135.8,237.9,137,232.7,134.7z"/>
	<path class="st247" d="M241,177.2c-5.7-0.9-11.3-1.9-15.6-6.4C230.5,173.2,236.2,174.1,241,177.2z"/>
	<path class="st248" d="M272.6,177c0.1-0.4,0.1-0.9,0.2-1.3c2.1-2.8,2.8-6.6,6.3-8.4c1.1,0.8,0.2,1.4-0.3,1.8
		c-2.8,2.1-3.5,5.6-5.5,8.2c0,0-0.3,0-0.4-0.1C272.8,177.2,272.7,177.1,272.6,177z"/>
	<path class="st249" d="M252.4,181.2c-4.2-0.5-7.9-2.2-11.5-4.1C245.3,177,249,178.6,252.4,181.2z"/>
	<path class="st250" d="M214.7,126.7c3.4-1.2,4.9,2.2,7.4,3.2c0.3,0.2,0.4,0.4,0.3,0.5c-0.1,0.2-0.2,0.3-0.3,0.3
		C219,130.5,217,128.4,214.7,126.7z"/>
	<path class="st251" d="M251.2,138.9c4.2,1.3,6.5,4.4,8.5,8C256.4,144.8,253.9,141.7,251.2,138.9z"/>
	<path class="st250" d="M266.3,191.8c-3.4-0.8-5-3.5-6.6-6.2c1-1.1,1.2,0.1,1.6,0.6C262.9,188.1,264.6,190,266.3,191.8z"/>
	<path class="st252" d="M273,154.2c2.9,1.1,6.4,0.2,8.9,2.6c-3.3,0.3-6.3-0.6-9.2-1.9c0,0,0-0.3,0.1-0.4
		C272.8,154.3,272.9,154.3,273,154.2z"/>
	<path class="st253" d="M227.8,133.1c0.3,0.3,0.6,0.5,0.9,0.8c-2.9,1.8-4.5-1.1-6.7-1.9c0.1-0.1,0.1-0.3,0.2-0.3
		c0.2-0.1,0.5-0.1,0.8-0.2C225,130.6,226.4,132,227.8,133.1z"/>
	<path class="st254" d="M227.8,133.1c-1.6-0.6-3.2-1.1-4.9-1.7c-0.3-0.3-0.5-0.6-0.8-0.8c0-0.3,0-0.5,0-0.8c2.2,0.4,4.3,1.1,6.2,2.4
		C229.6,133,228.2,132.9,227.8,133.1z"/>
	<path class="st255" d="M214.8,164.1c-2.2-1.1-4.3-2.3-6.5-3.4C211.1,160.7,213.5,161.3,214.8,164.1z"/>
	<path class="st256" d="M224.7,170.6c-2.5-0.9-5.4-1.1-6.6-4.1c0.5,0.2,1.1,0.4,1.6,0.7c1-0.2,1.7,0.4,2.4,0.9
		C223,169,223.8,169.8,224.7,170.6z"/>
	<path class="st257" d="M200.1,116c0-0.3,0-0.6,0-0.9c1.4,1.1,2.8,2.2,4.2,3.4c0.4,0.5,1.1,0.8,0.8,1.6
		C202.5,119.8,201.4,117.7,200.1,116z"/>
	<path class="st258" d="M263,149.3c2.7-0.7,4.4,1.4,6.5,2.2c-0.3,0.1-0.7,0.3-1,0.4C266.4,151.5,264.7,150.5,263,149.3z"/>
	<path class="st259" d="M205.1,120c-0.3-0.5-0.5-1-0.8-1.6c2.1,0.2,4,0.5,3.9,3.3C207.1,121.1,206.1,120.6,205.1,120z"/>
	<path class="st260" d="M191.1,164.7c-1.1,0.9-2.2,1.8-3.2,2.7C187.9,165.4,188.8,164.2,191.1,164.7z"/>
	<path class="st261" d="M196.8,159.8c-0.8,0.9-1.7,1.8-2.5,2.7c-0.2,0.3-0.4,0.3-0.7,0.1C193.6,160.4,194.6,159.4,196.8,159.8z"/>
	<path class="st262" d="M193.6,162.5c0.2,0,0.4-0.1,0.7-0.1c0.1,2.2-0.9,3.2-3.2,2.7C191.9,164.3,192.8,163.4,193.6,162.5z"/>
	<path class="st263" d="M256.4,183.1c-2.1,1.1-3-0.4-4-1.8C254,181.2,255.1,182.2,256.4,183.1z"/>
	<path class="st264" d="M222.1,168.1c-1,0.3-1.7-0.5-2.4-0.9C221.2,165.7,221.7,166.7,222.1,168.1z"/>
	<path class="st262" d="M199.2,158.4c0.1,1.7-0.3,2.8-2.4,1.8C197.6,159.6,198.4,159,199.2,158.4z"/>
	<path class="st260" d="M261.3,186.2c-0.5-0.2-1.1-0.4-1.6-0.6c-0.2-0.4-0.5-0.8-0.7-1.2C260.7,183.7,261.5,184.2,261.3,186.2z"/>
	<path class="st265" d="M271.2,197.6c-0.6-0.8-1.2-1.6-1.7-2.4C271.3,195.1,272.1,195.7,271.2,197.6z"/>
	<path class="st266" d="M210.7,124.1c0.8,0.6,1.6,1.2,2.4,1.7C211.3,126.8,210.6,126,210.7,124.1z"/>
	<path class="st267" d="M290,75.2c2.1,0.2,1,1.4,0.7,2.4c-2,1.2-3.3,3.8-6.2,3.3c-0.6-0.1-1.5,0.1-1.6-0.8c0-0.4,0.4-1,0.8-1.3
		C285.8,77.5,287.9,76.4,290,75.2z"/>
	<path class="st268" d="M255.7,79.3c0.8-2.7,1.7-5.5,2.5-8.2c1.2,0.2,1.6,1,1.2,2c-1.1,2.5-1.3,5.4-3,7.8
		C256.2,80.3,256,79.8,255.7,79.3z"/>
	<path class="st264" d="M339,106.8c1.1,0.8,2.2,1.7,3.3,2.5c-3.8,1.4-7.6,1.5-11.4,0.2c0.5-0.9,1.2-1.2,2.3-1
		C335.1,107.9,337.1,107.4,339,106.8z"/>
	<path class="st124" d="M320.9,126.5c-3.7,1.4-7.5,2.9-11.2,4.3C311.3,128.3,317.6,125.8,320.9,126.5z"/>
	<path class="st122" d="M330.7,123.1c-2.1,0.7-4.1,1.3-6.2,2C325.9,122.5,328.1,122.1,330.7,123.1z"/>
	<path class="st269" d="M340.5,112.6c-2.2,0.4-4.3,0.8-6.5,1.2C335.8,111.3,338,111.4,340.5,112.6z"/>
	<path class="st136" d="M335.5,118.5c0.7,1.5,1.8,3.3-1.3,3.4C333.8,120.4,335,119.6,335.5,118.5z"/>
	<path class="st197" d="M302.1,134.7c-1.1,0.5-2.1,1.1-3.2,1.6C299.4,134.6,300.2,133.5,302.1,134.7z"/>
	<path class="st258" d="M333.1,108.5c-0.8,0.3-1.5,0.7-2.3,1c-0.8-0.6-0.4-1.1,0.2-1.4C331.9,107.7,332.6,107.8,333.1,108.5z"/>
	<path class="st270" d="M137.2,137.2c0.2-1.7,1.6-2,2.8-2.4c9.2-2.8,18.5-5.6,27.7-8.4c1.3-0.4,2.5-1.1,3.7,0.2
		c0.1,2.1-1.7,1.3-2.6,1.5c-3.2,0.8-6.1,2.8-9.6,2.6c-1.7,0.5-3.3,1.1-5,1.6c-3.3,1.8-6.8,2.9-10.5,3.3
		C141.4,135.5,139.4,136.7,137.2,137.2z"/>
	<path class="st271" d="M159.2,130.7c4.1-1.4,8.2-2.7,12.2-4.1c2.4-0.6,4.8-1.1,7.2-1.7c0.5,0,1.1,0.1,1.6,0.1
		c0.1,0.2,0.1,0.4,0.2,0.6c-6.6,1.9-13.3,3.9-19.9,5.7C160.2,131.5,159.7,130.9,159.2,130.7z"/>
	<path class="st272" d="M143.7,135.5c3.5-1.1,7-2.2,10.5-3.3c0.3,0.2,0.7,0.3,1,0.5C151.6,134.6,148,136.3,143.7,135.5z"/>
	<path class="st273" d="M131.6,140.1c-1.5-1.2-2.5,0.7-3.9,0.5c1.1-2.4,4.1-3.5,7.1-2.6C133.7,138.7,132.6,139.4,131.6,140.1z"/>
	<path class="st274" d="M347,88.1c-1.5,0.2-2.7,1-3.8,1.8c-1.3-2.1,1-1.8,1.7-2.2c5.5-3.3,11.8-4.7,17.8-6.7c1.2-0.4,2.2-0.8,3-1.8
		c2,1.8,1.1,2.4-1,2.9c-4.7,1.1-9.4,2.1-13.6,4.3C350,87.8,348.6,88.3,347,88.1z"/>
	<path class="st275" d="M357.7,70c0.6,0.6,1.3,1.2,1.9,1.9c1.5,1.9,3.1,3.8,4.6,5.7c-4-2-7-4.9-8.9-9C356.1,69,356.9,69.5,357.7,70z
		"/>
	<path class="st276" d="M349.6,63.6c0.9,0.8,1.8,1.6,2.7,2.4C350.9,65.9,349,66.1,349.6,63.6z"/>
	<path class="st277" d="M365.8,133.8c0.9-0.4,1.9-0.9,2.8-1.3c1.6-1.3,3.5-1.7,5.4-1.8c0.5-0.3,1.1-0.6,1.6-0.9
		c0.7-1.2,1.9-1.7,3.2-1.8c0.2,0,0.5,0.1,0.7,0.1c0.6,0.4,0.7,0.9,0.1,1.3c-4.5,2.7-9.3,4.7-14.4,6.1c-0.3,0.1-0.7-0.4-1-0.5
		C364.4,134,364.9,133.6,365.8,133.8z"/>
	<path class="st278" d="M352.8,141.3c0.6-2.6,2.2-3.7,4.8-3.4C356.3,139.4,354.8,140.6,352.8,141.3z"/>
	<path class="st270" d="M365.8,133.8c-0.5,0.4-1.1,0.7-1.6,1.1c-1.2,0.6-2.8,0.5-3.8,1.6C360.9,134.1,362.7,133.3,365.8,133.8z"/>
	<path class="st273" d="M343.1,148.7c0.2-2.1,0.5-2.5,3.3-3.3C345.2,146.4,345.2,148.6,343.1,148.7z"/>
	<path class="st279" d="M297.3,178c-0.3-0.8-0.6-1.6-0.9-2.5c2.2-1.5,4.2-1.8,5.9,0.8c-0.6,0.8-1.2,1.6-1.9,2.5
		C299.1,179.7,298.1,179.3,297.3,178z"/>
	<path class="st280" d="M307.1,152.7c4.3-2,7,2.2,10.8,2.3c-0.2,1.4-1.4,0.9-1.8,1.6c-1.7,0.7-2.6-0.9-3.9-1.5
		C310.5,154.3,308.8,153.5,307.1,152.7z"/>
	<path class="st281" d="M317.7,157.5c0.8,0,1.6,0,2.5,0c2,0,3.3,0.9,4,2.7C321.4,160.8,319.6,159,317.7,157.5z"/>
	<path class="st282" d="M330,166.6c0,1.4-1,2.3-1.9,3.3c-0.3-1.9-0.5-3.8,0.1-5.7C330.1,164,329.8,165.5,330,166.6z"/>
	<path class="st283" d="M312.2,155c1.6-0.3,2.5,1.1,3.9,1.5c0.7,0.1,1.5,0.2,1.7,1.1c-2.5,0.5-4.4-1-6.5-1.9
		C310.8,155.5,311.8,155.2,312.2,155z"/>
	<path class="st284" d="M324.2,160.2c-1.3-0.9-2.7-1.8-4-2.7c2.8-1.2,3.9,0.4,4.7,2.7C324.6,160.2,324.4,160.2,324.2,160.2z"/>
	<path class="st285" d="M330,166.6c-0.6-0.8-1.2-1.6-1.8-2.4c0-0.2,0-0.5,0-0.7C330.6,163.5,330.8,164.7,330,166.6z"/>
	<path class="st286" d="M319.3,182.2c-1,1.2-2.1,0.6-3.3,0.1c0.9-0.1,1.7-0.2,2.6-0.2C318.9,182,319.1,182,319.3,182.2z"/>
	<path class="st287" d="M71,163.3c1.9-0.6,3.8-1.1,5.7-1.7c2,0.9,5-2,6.4,1.6c-4.1,2.5-8.7,1.7-13.2,2.2c-0.8,0.1-0.5-0.7-0.5-1.2
		C70,163.9,70.5,163.6,71,163.3z"/>
	<path class="st288" d="M120,156c1.7,1.3,0.2,2-0.6,2.8c-2.8,2.9-5.7,5.7-8.5,8.5c-1.2-1.8,0.7-2.3,1.5-3.2
		C114.8,161.4,117.4,158.7,120,156z"/>
	<path class="st289" d="M110.3,143.8c0.8,0.5,1.6,1.1,2.4,1.6c1.7,3.1,5.6,4.4,6.5,8.1c-0.2,0-0.4,0-0.6,0c-2.9-3.4-6.5-6.2-10-9.1
		C109,143.8,109.6,143.7,110.3,143.8z"/>
	<path class="st290" d="M104.5,176.1c-1.9,2.4-4,4.3-7.4,3.4C99.1,177.4,101.8,176.8,104.5,176.1z"/>
	<path class="st291" d="M109.5,169.1c-0.3,0.6-0.5,1.1-0.8,1.7c-0.3,0.2-0.7,0.4-1,0.7C106.9,169.7,107.5,168.8,109.5,169.1z"/>
	<path class="st292" d="M347,88.1c1.4-0.5,2.7-1.1,4.1-1.6c0.3,0.2,0.7,0.3,1,0.5C350.5,87.9,349.2,90,347,88.1z"/>
	<path class="st293" d="M433.9,60.6c1.3-2.1,5-3.4,7.9-2.6C439.2,58.9,436.5,59.7,433.9,60.6z"/>
	<path class="st294" d="M319.3,142.9c-0.3-0.3-0.5-0.6-0.8-0.8c4.1-1.8,8.5-0.4,12.7-0.8c1.7-0.2,3.5,0,5.3,0
		c0.4-0.4,0.8-0.3,1.1,0.1C331.6,144.1,325.4,142.7,319.3,142.9z"/>
	<path class="st277" d="M337.5,141.4c-0.4,0-0.7-0.1-1.1-0.1c2.7-1.6,5.2-3.8,8.3-4.9c0.3,1.4-0.5,2.1-1.7,2.5
		C341.2,139.7,339.7,141.3,337.5,141.4z"/>
	<path class="st295" d="M343,138.9c0.6-0.8,1.1-1.6,1.7-2.5c1.2,0,1.8-0.9,2.5-1.6C347.3,137.7,346,139.2,343,138.9z"/>
	<path class="st296" d="M374,130.7c-1.6,1.1-3.5,1.6-5.4,1.8C369.6,130.4,371.2,129.9,374,130.7z"/>
	<path class="st297" d="M365.6,125.1c-1.6-0.2-3.1-0.8-3.9-2.4c2.1-1,2.8,1.3,4.3,1.8c0,0.1-0.1,0.3-0.1,0.4
		C365.8,124.9,365.7,125,365.6,125.1z"/>
	<path class="st298" d="M378.8,128c-1.1,0.6-2.1,1.2-3.2,1.8C375.9,127.8,377,127.3,378.8,128z"/>
	<path class="st83" d="M321.8,130c2.9-0.9,5.7-2.3,8.8-2.6c0.3,0.2,0.6,0.3,0.9,0.5C328.4,128.6,325.6,131.5,321.8,130z"/>
	<path class="st83" d="M310.3,134.7c2.6-1.4,5.2-2.6,8.1-3.3C316.3,134.1,313.6,135.1,310.3,134.7z"/>
	<path class="st299" d="M298.9,139.6c0.8-0.3,1.6-0.5,2.4-0.8c2,1.4,4.4,0.4,6.5,1.3c-3.3-0.1-6.6,1.1-9.8-0.5
		C298.4,139.3,298.6,139.3,298.9,139.6z"/>
	<path class="st131" d="M303,138c1.9-0.8,3.7-1.7,5.6-2.5C307.3,137.5,305.6,138.8,303,138z"/>
	<path class="st80" d="M298.9,139.6c-0.3,0-0.6,0-0.8,0c-0.8-0.3-1.3-0.8-1.7-1.6c0.5-0.3,0.9-0.5,1.4-0.8
		C298.2,138,298.6,138.8,298.9,139.6z"/>
	<path class="st300" d="M382.2,66.1c2-2.6,4.9-4.4,7.4-6.5C387.9,62.8,386.3,65.9,382.2,66.1z"/>
	<path class="st301" d="M153.5,168.2c0-0.3,0-0.5,0-0.8c1-0.3,2-0.7,3-1c0.3,0.3,1.8,0.1,0.7,0.8C156.3,168,154.8,167.9,153.5,168.2
		z"/>
	<path class="st302" d="M349.5,115.9c-0.3,1.4-0.5,2.7-0.8,4.1c-2.3,0.9-4.8,0.2-7.1,0.7c-1.5,0.3-2.5-0.7-2.5-2.4
		c0-1.6,1.1-1.9,2.4-2c2.1-0.1,4.3,0.5,6.3-0.3C348.4,116,348.9,116,349.5,115.9z"/>
	<path class="st303" d="M347.9,116c-1.5,2.1-3.6,0.2-5.4,0.7c-1.1,0.3-2.7-0.1-2.6,1.7c0.1,1.8,1.6,1.5,2.7,1.6c2,0,4.1,0,6.1,0
		c0.3,0.5,0.6,1.1,0.8,1.6c-2.6-0.7-5.3-0.7-8-0.1c-3.1,0.7-3.5-1.4-3.8-3.7c-0.4-3.2,2.1-1.7,3.3-1.8
		C343.3,115.7,345.6,116,347.9,116z"/>
	<path class="st66" d="M88.2,188.8c-2.6-0.2-5.1-0.4-7.4-1.7c0-0.6,0-1.2,0-1.8c-1.6-0.2-3.1-1.6-4.9-0.8c-3.3-0.5-6.5-1.1-9.8-1.6
		c0.1-2.3,2.5-3,3.3-4.9c1-0.4,1.9-1,3.1-0.5c4.3,1.8,8.7,2.6,13.4,2.6c2.4,0,1.8,2.2,2.3,3.5c0.4,1-0.6,2.9,1.7,2.5
		c0.8,0.6,0.7,1.6,0.8,2.4C89.9,189.3,89.1,189,88.2,188.8z"/>
	<path class="st5" d="M88.2,188.8c0.8-0.1,1.6-0.2,2.4-0.3c0.6,0.3,1.3,0.5,1.9,0.8C91.1,189.3,89.6,189.9,88.2,188.8z"/>
	<path class="st304" d="M420.3,64.9c-0.1,1.4-1,2-1.6,2.6c-1.7,1.9-4.2,2.9-5.7,5.1c-1.1,1.6-2.5,0.3-3.5-0.4
		c-1.5-0.9-2.8-2.3-2.4-4.3c1-4.7,4.2-6.4,9.4-5.2C418.1,63.2,419.5,63.7,420.3,64.9z"/>
	<path class="st305" d="M297.3,178c1,0.5,1.9,0.9,3.1,0.8c0.1,2-1.4,0.8-2,0.8C297.6,179.6,296.5,179.3,297.3,178z"/>
	<path class="st306" d="M358.4,36.9c-0.8-0.1-1.6-0.2-2.4-0.3c0.9-2.6,2.9-3.7,5.4-3.9c0.9-0.1,1.7,0.1,1.7,1.2
		c0,0.8-0.6,1.1-1.4,1.2C360.5,35.2,358.7,34.7,358.4,36.9z"/>
	<path class="st307" d="M365,37.4c-1.5,1.5-3.2,1.2-4.8,0.3C361.8,37.6,363.4,37.5,365,37.4z"/>
	<path class="st308" d="M371.6,23.8c0.5-0.1,1-0.2,1.5-0.2c0.3,1.4,0.7,2.9,0.9,4.3c0.1,1.2,0.5,2.7-0.9,3.3
		c-1.2,0.5-1.8-0.9-2.5-1.6c-0.6-0.5-1-1.3-1.5-1.9C369.8,26.3,371.5,25.6,371.6,23.8z"/>
	<path class="st70" d="M76,184.6c1.9-1.5,3.4-0.1,4.9,0.8C79.1,185.7,77.6,184.8,76,184.6z"/>
	<path class="st26" d="M248.3,113.5c-0.1-1.5-0.2-2.9,0.7-4.3C248.9,110.7,249.6,112.2,248.3,113.5z"/>
</g>
</svg>
