<?xml version="1.0" encoding="utf-8"?>
<!-- Generator: Adobe Illustrator 23.0.1, SVG Export Plug-In . SVG Version: 6.00 Build 0)  -->
<svg version="1.1" id="Calque_1" xmlns="http://www.w3.org/2000/svg" xmlns:xlink="http://www.w3.org/1999/xlink" x="0px" y="0px"
	 viewBox="0 0 678.4 579.9" style="enable-background:new 0 0 678.4 579.9;" xml:space="preserve">
<style type="text/css">
	.st0{fill:#005CB1;}
</style>
<g>
	<path class="st0" d="M666.6,0H21.3C9.5,0,0,9.5,0,21.3V559c0,11.8,9.5,21.3,21.3,21.3h56.9c11.8,0,21.3-9.5,21.3-21.3V326.4
		c0-11.8,9.5-21.3,21.3-21.3l113.8-2.1c20.4,0,29.1-25.9,12.9-38.3L105,158"/>
	<path class="st0" d="M315.7,570.2V73.8c0-12.5-13.7-7.5-16.3,4.7l-78,371.5c-0.5,2.5-1.9,4.7-4,6.2L12.5,560.7
		c-8.1,6,1.8,19.9,11.8,19.9h281C318.7,580.6,315.7,575.9,315.7,570.2z"/>
	<path class="st0" d="M417.5,66.5L305,580.6c16.9,0,16.9,0,20.7-11l173.8-384c0.5-2.5,1.9-4.7,4-6.2L673.7,19c8.1-6,2.9-19-7.1-19
		L427.9,56.1C422.2,56.1,417.5,60.7,417.5,66.5z"/>
</g>
<path class="st0" d="M385.6,565.8l24.2-50.6c2.8-5.8,10.3-7.5,15.2-3.4l61.4,50.7c7.2,5.9,3,17.5-6.3,17.5l-85.5-0.1
	C387.3,580,382.5,572.4,385.6,565.8z"/>
<path class="st0" d="M571.8,523.9l-23.6,50.8c-2.7,5.8-10.2,7.6-15.2,3.5l-61.9-50c-7.2-5.8-3.2-17.5,6.1-17.6l85.5-0.8
	C570,509.8,574.9,517.3,571.8,523.9z"/>
<path class="st0" d="M574.1,565.8l24.1-50.6c2.8-5.8,10.3-7.5,15.2-3.4l61.4,50.6c7.2,5.9,3,17.5-6.3,17.5l-85.5-0.1
	C575.7,580,570.9,572.4,574.1,565.8z"/>
</svg>
