<?xml version="1.0" encoding="utf-8"?>
<!-- Generator: Adobe Illustrator 22.0.1, SVG Export Plug-In . SVG Version: 6.00 Build 0)  -->
<svg version="1.1" id="Calque_1" xmlns="http://www.w3.org/2000/svg" xmlns:xlink="http://www.w3.org/1999/xlink" x="0px" y="0px"
	 viewBox="0 0 1280 720" style="enable-background:new 0 0 1280 720;" xml:space="preserve">
<style type="text/css">
	.st0{fill:#005CB1;}
	.st1{fill:#FF8E09;}
</style>
<g>
	<path class="st0" d="M957.7,67.7H312.4c-11.8,0-21.3,9.5-21.3,21.3v537.7c0,11.8,9.5,21.3,21.3,21.3h56.9
		c11.8,0,21.3-9.5,21.3-21.3V394.1c0-11.8,9.5-21.3,21.3-21.3l113.8-2.1c20.4,0,29.1-25.9,12.9-38.3L396.1,225.7"/>
	<path class="st0" d="M606.8,637.9V141.5c0-12.5-13.7-7.5-16.3,4.7l-78,371.5c-0.5,2.5-1.9,4.7-4,6.2L303.6,628.4
		c-8.1,6,1.8,19.9,11.8,19.9h281C609.8,648.3,606.8,643.6,606.8,637.9z"/>
	<path class="st0" d="M708.6,134.2L596.1,648.3c16.9,0,16.9,0,20.7-11l173.8-384c0.5-2.5,1.9-4.7,4-6.2L964.8,86.7
		c8.1-6,2.9-19-7.1-19L719,123.8C713.3,123.8,708.6,128.4,708.6,134.2z"/>
</g>
<path class="st1" d="M676.7,633.5l24.2-50.6c2.8-5.8,10.3-7.5,15.2-3.4l61.4,50.7c7.2,5.9,3,17.5-6.3,17.5l-85.5-0.1
	C678.4,647.7,673.6,640.1,676.7,633.5z"/>
<path class="st1" d="M862.9,591.6l-23.6,50.8c-2.7,5.8-10.2,7.6-15.2,3.5l-61.9-50c-7.2-5.8-3.2-17.5,6.1-17.6l85.5-0.8
	C861.1,577.5,866,585,862.9,591.6z"/>
<path class="st1" d="M865.2,633.5l24.1-50.6c2.8-5.8,10.3-7.5,15.2-3.4l61.4,50.6c7.2,5.9,3,17.5-6.3,17.5l-85.5-0.1
	C866.8,647.7,862,640.1,865.2,633.5z"/>
</svg>
