<svg viewBox="0 0 16 16" xmlns="http://www.w3.org/2000/svg" fill-rule="evenodd" clip-rule="evenodd">
  <path
    d="M4.54,8V5.4H4.9L6,5.36c0-.38,0-.77,0-1.15s0-.79,0-1.19A2.34,2.34,0,0,1,8.23.62a28.92,28.92,0,0,1,3-.12.26.26,0,0,1,.18.18c0,.76,0,1.53,0,2.29,0,.17-.1.2-.23.2H9.79c-.47,0-.64.17-.64.63s0,1,0,1.6h2.32L11.23,8h-.57c-.41,0-.83,0-1.24,0-.22,0-.29.07-.29.29,0,2.28,0,4.56,0,6.84,0,.4,0,.41-.4.41-.77,0-1.55,0-2.32,0-.27,0-.35-.08-.35-.35,0-2.25,0-4.5,0-6.76,0-.41,0-.41-.41-.41Z"
    fill-rule="nonzero"></path>
</svg>
